# Blender 4.2.2 LTS
# www.blender.org
mtllib point.mtl
o Plane.096
v -16.960417 -0.355309 -100.937042
v -16.960417 -0.355309 -100.646133
v 17.794466 -0.355312 -100.937042
v 17.794466 -0.355312 -100.646133
v 17.794466 -0.483631 -100.937042
v -16.960417 -0.483628 -100.937042
v -16.960417 -0.483628 -100.646133
v 17.794466 -0.483631 -100.646133
v -21.155420 0.076979 -32.222164
v -21.155420 0.076979 -31.854744
v 22.054487 0.076975 -32.222164
v 22.054487 0.076975 -31.854742
v 22.054487 -0.051343 -32.222164
v -21.155420 -0.051340 -32.222164
v -21.155420 -0.051340 -31.854744
v 22.054487 -0.051343 -31.854742
v -19.360146 0.076979 -69.777451
v -19.360146 0.076979 -69.410034
v 20.237637 0.076976 -69.777451
v 20.237637 0.076976 -69.410034
v 20.237637 -0.051343 -69.777451
v -19.360146 -0.051340 -69.777451
v -19.360146 -0.051340 -69.410034
v 20.237637 -0.051343 -69.410034
v -13.794920 -0.682607 -132.887833
v -13.794920 -0.682607 -132.641373
v 14.154634 -0.682608 -132.887833
v 14.154634 -0.682608 -132.641373
v 14.154634 -0.810927 -132.887833
v -13.794920 -0.810925 -132.887833
v -13.794920 -0.810925 -132.641373
v 14.154634 -0.810927 -132.641373
v -10.688134 -0.838626 -160.361221
v -10.688134 -0.838626 -160.070297
v 11.070254 -0.838628 -160.361221
v 11.070254 -0.838628 -160.070297
v 11.070254 -0.966946 -160.361221
v -10.688134 -0.966945 -160.361221
v -10.688134 -0.966945 -160.070297
v 11.070254 -0.966946 -160.070297
vn -0.0000 -1.0000 -0.0000
vn -0.0000 1.0000 -0.0000
vn -1.0000 -0.0000 -0.0000
vn 1.0000 -0.0000 -0.0000
vn -0.0000 -0.0000 -1.0000
vn -0.0000 -0.0000 1.0000
vt 0.000000 1.000000
vt 1.000000 0.000000
vt 0.000000 0.000000
vt 1.000000 1.000000
s 0
usemtl Material.013
f 3/1/1 2/2/1 1/3/1
f 7/2/2 5/1/2 6/3/2
f 3/1/3 8/4/3 4/4/3
f 2/2/4 6/3/4 1/3/4
f 4/4/5 7/2/5 2/2/5
f 1/3/6 5/1/6 3/1/6
f 11/1/1 10/2/1 9/3/1
f 15/2/2 13/1/2 14/3/2
f 11/1/3 16/4/3 12/4/3
f 10/2/4 14/3/4 9/3/4
f 12/4/5 15/2/5 10/2/5
f 9/3/6 13/1/6 11/1/6
f 19/1/1 18/2/1 17/3/1
f 23/2/2 21/1/2 22/3/2
f 19/1/3 24/4/3 20/4/3
f 18/2/4 22/3/4 17/3/4
f 20/4/5 23/2/5 18/2/5
f 17/3/6 21/1/6 19/1/6
f 27/1/1 26/2/1 25/3/1
f 31/2/2 29/1/2 30/3/2
f 27/1/3 32/4/3 28/4/3
f 26/2/4 30/3/4 25/3/4
f 28/4/5 31/2/5 26/2/5
f 25/3/6 29/1/6 27/1/6
f 35/1/1 34/2/1 33/3/1
f 39/2/2 37/1/2 38/3/2
f 35/1/3 40/4/3 36/4/3
f 34/2/4 38/3/4 33/3/4
f 36/4/5 39/2/5 34/2/5
f 33/3/6 37/1/6 35/1/6
f 3/1/1 4/4/1 2/2/1
f 7/2/2 8/4/2 5/1/2
f 3/1/3 5/1/3 8/4/3
f 2/2/4 7/2/4 6/3/4
f 4/4/5 8/4/5 7/2/5
f 1/3/6 6/3/6 5/1/6
f 11/1/1 12/4/1 10/2/1
f 15/2/2 16/4/2 13/1/2
f 11/1/3 13/1/3 16/4/3
f 10/2/4 15/2/4 14/3/4
f 12/4/5 16/4/5 15/2/5
f 9/3/6 14/3/6 13/1/6
f 19/1/1 20/4/1 18/2/1
f 23/2/2 24/4/2 21/1/2
f 19/1/3 21/1/3 24/4/3
f 18/2/4 23/2/4 22/3/4
f 20/4/5 24/4/5 23/2/5
f 17/3/6 22/3/6 21/1/6
f 27/1/1 28/4/1 26/2/1
f 31/2/2 32/4/2 29/1/2
f 27/1/3 29/1/3 32/4/3
f 26/2/4 31/2/4 30/3/4
f 28/4/5 32/4/5 31/2/5
f 25/3/6 30/3/6 29/1/6
f 35/1/1 36/4/1 34/2/1
f 39/2/2 40/4/2 37/1/2
f 35/1/3 37/1/3 40/4/3
f 34/2/4 39/2/4 38/3/4
f 36/4/5 40/4/5 39/2/5
f 33/3/6 38/3/6 37/1/6
