# Blender 4.2.2 LTS
# www.blender.org
mtllib bar.mtl
o bar
v 0.029466 0.055617 -0.018974
v 0.028301 0.061080 -0.017797
v 0.026407 0.066115 -0.015886
v 0.023859 0.070528 -0.013312
v 0.020753 0.074149 -0.010177
v 0.017211 0.076840 -0.006599
v 0.013367 0.078498 -0.002718
v 0.009369 0.079057 0.001319
v 0.005372 0.078498 0.005356
v 0.001529 0.076840 0.009238
v -0.002014 0.074149 0.012816
v -0.005120 0.070528 0.015951
v -0.007668 0.066115 0.018524
v -0.009562 0.061080 0.020437
v -0.010727 0.055617 0.021614
v -0.011121 0.049936 0.022012
v -0.010727 0.044254 0.021614
v -0.009562 0.038792 0.020437
v -0.007668 0.033758 0.018524
v -0.005120 0.029344 0.015951
v -0.002014 0.025722 0.012816
v 0.001529 0.023031 0.009238
v 0.005372 0.021375 0.005356
v 0.009369 0.020815 0.001319
v 0.013367 0.021375 -0.002718
v 0.017211 0.023031 -0.006599
v 0.020753 0.025722 -0.010177
v 0.023859 0.029344 -0.013312
v 0.026407 0.033758 -0.015886
v 0.028301 0.038792 -0.017797
v 0.029466 0.044254 -0.018976
v 0.029859 0.049936 -0.019372
v 0.868617 0.055617 0.846980
v 0.867451 0.061080 0.848157
v 0.865558 0.066115 0.850070
v 0.863010 0.070528 0.852643
v 0.859904 0.074149 0.855778
v 0.856361 0.076840 0.859356
v 0.852518 0.078498 0.863238
v 0.848520 0.079057 0.867275
v 0.844523 0.078498 0.871312
v 0.840678 0.076840 0.875193
v 0.837135 0.074149 0.878771
v 0.834031 0.070528 0.881906
v 0.831483 0.066115 0.884480
v 0.829589 0.061080 0.886391
v 0.828423 0.055617 0.887569
v 0.828029 0.049936 0.887966
v 0.828423 0.044254 0.887569
v 0.829589 0.038793 0.886391
v 0.831483 0.033758 0.884480
v 0.834031 0.029344 0.881906
v 0.837135 0.025722 0.878771
v 0.840678 0.023031 0.875193
v 0.844523 0.021375 0.871312
v 0.848520 0.020815 0.867275
v 0.852518 0.021375 0.863238
v 0.856361 0.023031 0.859356
v 0.859904 0.025722 0.855778
v 0.863010 0.029344 0.852643
v 0.865558 0.033758 0.850070
v 0.867451 0.038793 0.848157
v 0.868617 0.044254 0.846980
v 0.869010 0.049936 0.846583
vn -0.7106 -0.0000 -0.7036
vn 0.7106 -0.0000 0.7036
vn 0.6333 -0.4714 -0.6137
vn -0.7147 -0.0981 0.6925
vn 0.5551 0.6344 -0.5380
vn 0.6872 -0.2902 -0.6660
vn -0.6872 -0.2902 0.6660
vn 0.4556 0.7729 -0.4415
vn 0.7150 -0.0980 -0.6922
vn 0.7146 -0.0984 -0.6926
vn -0.6334 -0.4713 0.6138
vn 0.3386 0.8819 -0.3281
vn -0.5552 -0.6342 0.5380
vn 0.2086 0.9569 -0.2021
vn -0.4557 -0.7729 0.4416
vn 0.0704 0.9952 -0.0682
vn -0.3385 -0.8819 0.3280
vn -0.0704 0.9952 0.0682
vn -0.2084 -0.9570 0.2020
vn -0.2086 0.9569 0.2021
vn -0.0704 -0.9952 0.0682
vn -0.3385 0.8819 0.3280
vn 0.0704 -0.9952 -0.0682
vn -0.4556 0.7730 0.4415
vn 0.2084 -0.9570 -0.2020
vn -0.5552 0.6343 0.5380
vn 0.3385 -0.8819 -0.3280
vn -0.6333 0.4714 0.6137
vn 0.7147 0.0980 -0.6926
vn 0.4556 -0.7730 -0.4415
vn -0.6872 0.2901 0.6660
vn 0.6873 0.2901 -0.6660
vn 0.5553 -0.6341 -0.5381
vn -0.7147 0.0980 0.6926
vn 0.6334 0.4713 -0.6138
vn -0.7104 0.0001 -0.7038
vn -0.7117 0.0003 -0.7025
vn -0.7114 0.0008 -0.7028
vn -0.7113 0.0016 -0.7029
vn -0.7106 0.0009 -0.7036
vn -0.7105 0.0010 -0.7037
vn -0.7109 -0.0008 -0.7033
vn -0.7103 0.0002 -0.7039
vn -0.7104 -0.0001 -0.7038
vn -0.7103 -0.0002 -0.7039
vn -0.7109 0.0008 -0.7033
vn -0.7105 -0.0010 -0.7037
vn -0.7106 -0.0009 -0.7036
vn -0.7113 -0.0016 -0.7029
vn -0.7114 -0.0008 -0.7028
vn -0.7107 -0.0000 -0.7035
vn -0.7106 0.0005 -0.7036
vn -0.7106 -0.0005 -0.7036
vn -0.7106 -0.0001 -0.7036
vn -0.7105 -0.0000 -0.7037
vn -0.7105 -0.0000 -0.7036
vn 0.7104 -0.0001 0.7038
vn 0.7104 -0.0002 0.7038
vn 0.7108 0.0006 0.7033
vn 0.7105 -0.0009 0.7037
vn 0.7107 -0.0009 0.7035
vn 0.7105 -0.0000 0.7037
vn 0.7114 -0.0009 0.7028
vn 0.7110 -0.0002 0.7032
vn 0.7111 0.0002 0.7031
vn 0.7114 0.0009 0.7028
vn 0.7107 0.0009 0.7035
vn 0.7105 0.0009 0.7037
vn 0.7108 -0.0006 0.7034
vn 0.7104 0.0003 0.7038
vn 0.7104 0.0001 0.7038
vn 0.7107 0.0004 0.7035
vn 0.7105 0.0002 0.7037
vn 0.7107 -0.0001 0.7035
vn 0.7106 0.0001 0.7036
vn 0.7105 -0.0002 0.7037
vn 0.7107 -0.0004 0.7035
vn 0.7105 0.0001 0.7037
vn 0.6334 -0.4713 -0.6138
vn -0.7147 -0.0980 0.6926
vn 0.5552 0.6343 -0.5380
vn 0.6872 -0.2903 -0.6659
vn 0.4556 0.7730 -0.4415
vn 0.7146 -0.0983 -0.6926
vn 0.7144 -0.0975 -0.6929
vn -0.6333 -0.4714 0.6137
vn 0.3385 0.8819 -0.3280
vn -0.5553 -0.6341 0.5381
vn -0.4556 -0.7730 0.4415
vn -0.4557 0.7729 0.4416
vn -0.5551 0.6344 0.5380
vn 0.3386 -0.8819 -0.3281
vn -0.6334 0.4713 0.6138
vn 0.4556 -0.7729 -0.4415
vn -0.6873 0.2901 0.6660
vn 0.6872 0.2901 -0.6660
vn 0.5552 -0.6342 -0.5380
vn -0.7147 0.0981 0.6925
vn 0.6333 0.4714 -0.6137
vt 0.000000 0.000000
s 0
usemtl Pink.001
f 18/1/1 10/1/1 2/1/1
f 48/1/2 56/1/2 64/1/2
f 29/1/3 62/1/3 61/1/3
f 16/1/4 49/1/4 48/1/4
f 4/1/5 35/1/5 3/1/5
f 30/1/6 63/1/6 62/1/6
f 17/1/7 50/1/7 49/1/7
f 5/1/8 36/1/8 4/1/8
f 31/1/9 64/1/10 63/1/10
f 18/1/11 51/1/11 50/1/11
f 6/1/12 37/1/12 5/1/12
f 19/1/13 52/1/13 51/1/13
f 7/1/14 38/1/14 6/1/14
f 20/1/15 53/1/15 52/1/15
f 8/1/16 39/1/16 7/1/16
f 21/1/17 54/1/17 53/1/17
f 9/1/18 40/1/18 8/1/18
f 22/1/19 55/1/19 54/1/19
f 10/1/20 41/1/20 9/1/20
f 23/1/21 56/1/21 55/1/21
f 11/1/22 42/1/22 10/1/22
f 24/1/23 57/1/23 56/1/23
f 12/1/24 43/1/24 11/1/24
f 25/1/25 58/1/25 57/1/25
f 13/1/26 44/1/26 12/1/26
f 26/1/27 59/1/27 58/1/27
f 14/1/28 45/1/28 13/1/28
f 1/1/29 64/1/29 32/1/29
f 27/1/30 60/1/30 59/1/30
f 15/1/31 46/1/31 14/1/31
f 2/1/32 33/1/32 1/1/32
f 28/1/33 61/1/33 60/1/33
f 16/1/34 47/1/34 15/1/34
f 3/1/35 34/1/35 2/1/35
f 2/1/36 1/1/36 32/1/36
f 32/1/37 31/1/37 30/1/37
f 30/1/38 29/1/38 28/1/38
f 28/1/39 27/1/39 26/1/39
f 26/1/40 25/1/40 24/1/40
f 24/1/41 23/1/41 22/1/41
f 22/1/42 21/1/42 20/1/42
f 20/1/43 19/1/43 18/1/43
f 18/1/36 17/1/36 16/1/36
f 16/1/44 15/1/44 14/1/44
f 14/1/45 13/1/45 12/1/45
f 12/1/46 11/1/46 10/1/46
f 10/1/47 9/1/47 8/1/47
f 8/1/48 7/1/48 6/1/48
f 6/1/49 5/1/49 4/1/49
f 4/1/50 3/1/50 2/1/50
f 2/1/51 32/1/51 30/1/51
f 30/1/1 28/1/1 26/1/1
f 26/1/52 24/1/52 22/1/52
f 22/1/36 20/1/36 18/1/36
f 18/1/51 16/1/51 14/1/51
f 14/1/44 12/1/44 10/1/44
f 10/1/53 8/1/53 6/1/53
f 6/1/1 4/1/1 2/1/1
f 2/1/1 30/1/1 26/1/1
f 26/1/54 22/1/54 18/1/54
f 18/1/55 14/1/55 10/1/55
f 10/1/1 6/1/1 2/1/1
f 2/1/56 26/1/56 18/1/56
f 64/1/57 33/1/57 34/1/57
f 34/1/58 35/1/58 36/1/58
f 36/1/59 37/1/59 38/1/59
f 38/1/60 39/1/60 40/1/60
f 40/1/61 41/1/61 42/1/61
f 42/1/62 43/1/62 44/1/62
f 44/1/63 45/1/63 46/1/63
f 46/1/64 47/1/64 48/1/64
f 48/1/65 49/1/65 50/1/65
f 50/1/66 51/1/66 52/1/66
f 52/1/62 53/1/62 54/1/62
f 54/1/67 55/1/67 56/1/67
f 56/1/68 57/1/68 58/1/68
f 58/1/69 59/1/69 60/1/69
f 60/1/70 61/1/70 62/1/70
f 62/1/71 63/1/71 64/1/71
f 64/1/62 34/1/62 36/1/62
f 36/1/72 38/1/72 40/1/72
f 40/1/73 42/1/73 44/1/73
f 44/1/74 46/1/74 48/1/74
f 48/1/75 50/1/75 52/1/75
f 52/1/76 54/1/76 56/1/76
f 56/1/77 58/1/77 60/1/77
f 60/1/78 62/1/78 64/1/78
f 64/1/2 36/1/2 40/1/2
f 40/1/62 44/1/62 48/1/62
f 48/1/62 52/1/62 56/1/62
f 56/1/2 60/1/2 64/1/2
f 64/1/2 40/1/2 48/1/2
f 29/1/79 30/1/79 62/1/79
f 16/1/80 17/1/80 49/1/80
f 4/1/81 36/1/81 35/1/81
f 30/1/82 31/1/82 63/1/82
f 17/1/7 18/1/7 50/1/7
f 5/1/83 37/1/83 36/1/83
f 31/1/84 32/1/84 64/1/85
f 18/1/86 19/1/86 51/1/86
f 6/1/87 38/1/87 37/1/87
f 19/1/88 20/1/88 52/1/88
f 7/1/14 39/1/14 38/1/14
f 20/1/89 21/1/89 53/1/89
f 8/1/16 40/1/16 39/1/16
f 21/1/17 22/1/17 54/1/17
f 9/1/18 41/1/18 40/1/18
f 22/1/19 23/1/19 55/1/19
f 10/1/20 42/1/20 41/1/20
f 23/1/21 24/1/21 56/1/21
f 11/1/22 43/1/22 42/1/22
f 24/1/23 25/1/23 57/1/23
f 12/1/90 44/1/90 43/1/90
f 25/1/25 26/1/25 58/1/25
f 13/1/91 45/1/91 44/1/91
f 26/1/92 27/1/92 59/1/92
f 14/1/93 46/1/93 45/1/93
f 1/1/29 33/1/29 64/1/29
f 27/1/94 28/1/94 60/1/94
f 15/1/95 47/1/95 46/1/95
f 2/1/96 34/1/96 33/1/96
f 28/1/97 29/1/97 61/1/97
f 16/1/98 48/1/98 47/1/98
f 3/1/99 35/1/99 34/1/99
