# Blender 4.3.0
# www.blender.org
mtllib bar1.mtl
o Cube.002
v -9.402964 -0.350478 -88.457054
v -9.399209 0.049501 -88.458580
v -9.802946 -0.346724 -88.457069
v -9.799191 0.053256 -88.458595
v -9.402965 -0.373337 -94.457008
v -9.399210 0.026643 -94.458534
v -9.802947 -0.369582 -94.457024
v -9.799192 0.030397 -94.458549
vn -0.0000 0.0038 1.0000
vn -1.0000 0.0094 -0.0000
vn -0.0000 -0.0038 -1.0000
vn 1.0000 -0.0094 -0.0000
vn -0.0094 -0.9999 0.0038
vn 0.0094 0.9999 -0.0038
vt 0.625000 0.000000
vt 0.375000 0.250000
vt 0.375000 0.000000
vt 0.625000 0.250000
vt 0.375000 0.500000
vt 0.625000 0.500000
vt 0.375000 0.750000
vt 0.625000 0.750000
vt 0.375000 1.000000
vt 0.125000 0.750000
vt 0.125000 0.500000
vt 0.875000 0.500000
vt 0.625000 1.000000
vt 0.875000 0.750000
s 0
f 2/1/1 3/2/1 1/3/1
f 4/4/2 7/5/2 3/2/2
f 8/6/3 5/7/3 7/5/3
f 6/8/4 1/9/4 5/7/4
f 7/5/5 1/10/5 3/11/5
f 4/12/6 6/8/6 8/6/6
f 2/1/1 4/4/1 3/2/1
f 4/4/2 8/6/2 7/5/2
f 8/6/3 6/8/3 5/7/3
f 6/8/4 2/13/4 1/9/4
f 7/5/5 5/7/5 1/10/5
f 4/12/6 2/14/6 6/8/6
