# Blender 4.3.0
# www.blender.org
o Cube.001
v 0.163673 -0.200000 -94.177917
v 0.163673 0.200000 -94.177917
v 0.451497 -0.200000 -94.455688
v 0.451497 0.200000 -94.455688
v 4.330258 -0.200000 -89.860565
v 4.330258 0.200000 -89.860565
v 4.618082 -0.200000 -90.138336
v 4.618082 0.200000 -90.138336
vn -0.6944 -0.0000 -0.7196
vn 0.7196 -0.0000 -0.6944
vn 0.6944 -0.0000 0.7196
vn -0.7196 -0.0000 0.6944
vn -0.0000 -1.0000 -0.0000
vn -0.0000 1.0000 -0.0000
vt 0.625000 0.000000
vt 0.375000 0.250000
vt 0.375000 0.000000
vt 0.625000 0.250000
vt 0.375000 0.500000
vt 0.625000 0.500000
vt 0.375000 0.750000
vt 0.625000 0.750000
vt 0.375000 1.000000
vt 0.125000 0.750000
vt 0.125000 0.500000
vt 0.875000 0.500000
vt 0.625000 1.000000
vt 0.875000 0.750000
s 0
f 2/1/1 3/2/1 1/3/1
f 4/4/2 7/5/2 3/2/2
f 8/6/3 5/7/3 7/5/3
f 6/8/4 1/9/4 5/7/4
f 7/5/5 1/10/5 3/11/5
f 4/12/6 6/8/6 8/6/6
f 2/1/1 4/4/1 3/2/1
f 4/4/2 8/6/2 7/5/2
f 8/6/3 6/8/3 5/7/3
f 6/8/4 2/13/4 1/9/4
f 7/5/5 5/7/5 1/10/5
f 4/12/6 2/14/6 6/8/6
o bar.001
v 0.405002 0.047775 -94.467262
v 0.399177 0.075090 -94.461372
v 0.389707 0.100265 -94.451820
v 0.376967 0.122330 -94.438950
v 0.361437 0.140435 -94.423279
v 0.343727 0.153890 -94.405388
v 0.324507 0.162180 -94.385979
v 0.304517 0.164975 -94.365799
v 0.284532 0.162180 -94.345612
v 0.265317 0.153890 -94.326202
v 0.247602 0.140435 -94.308311
v 0.232072 0.122330 -94.292633
v 0.219332 0.100265 -94.279770
v 0.209862 0.075090 -94.270203
v 0.204037 0.047775 -94.264320
v 0.202067 0.019370 -94.262329
v 0.204037 -0.009040 -94.264320
v 0.209862 -0.036350 -94.270203
v 0.219332 -0.061520 -94.279770
v 0.232072 -0.083590 -94.292633
v 0.247602 -0.101700 -94.308311
v 0.265317 -0.115155 -94.326202
v 0.284532 -0.123435 -94.345612
v 0.304517 -0.126235 -94.365799
v 0.324507 -0.123435 -94.385979
v 0.343727 -0.115155 -94.405388
v 0.361437 -0.101700 -94.423279
v 0.376967 -0.083590 -94.438950
v 0.389707 -0.061520 -94.451820
v 0.399177 -0.036350 -94.461372
v 0.405002 -0.009040 -94.467270
v 0.406967 0.019370 -94.469254
v 4.600757 0.047776 -90.137489
v 4.594927 0.075091 -90.131607
v 4.585463 0.100266 -90.122040
v 4.572722 0.122331 -90.109177
v 4.557192 0.140436 -90.093498
v 4.539477 0.153890 -90.075607
v 4.520262 0.162181 -90.056198
v 4.500272 0.164976 -90.036018
v 4.480288 0.162181 -90.015831
v 4.461062 0.153890 -89.996429
v 4.443347 0.140436 -89.978539
v 4.427827 0.122331 -89.962860
v 4.415087 0.100266 -89.949989
v 4.405617 0.075091 -89.940437
v 4.399787 0.047776 -89.934547
v 4.397817 0.019371 -89.932564
v 4.399787 -0.009039 -89.934547
v 4.405617 -0.036344 -89.940437
v 4.415087 -0.061519 -89.949989
v 4.427827 -0.083589 -89.962860
v 4.443347 -0.101699 -89.978539
v 4.461062 -0.115154 -89.996429
v 4.480288 -0.123434 -90.015831
v 4.500272 -0.126234 -90.036018
v 4.520262 -0.123434 -90.056198
v 4.539477 -0.115154 -90.075607
v 4.557192 -0.101699 -90.093498
v 4.572722 -0.083589 -90.109177
v 4.585463 -0.061519 -90.122040
v 4.594927 -0.036344 -90.131607
v 4.600757 -0.009039 -90.137489
v 4.602722 0.019370 -90.139473
vn -0.7106 -0.0000 -0.7036
vn -0.7105 -0.0000 -0.7037
vn 0.7107 -0.0000 0.7035
vn 0.7105 0.0001 0.7037
vn 0.6334 -0.4712 -0.6138
vn 0.6334 -0.4713 -0.6138
vn -0.7147 -0.0981 0.6925
vn -0.7147 -0.0979 0.6926
vn 0.5552 0.6343 -0.5380
vn 0.6872 -0.2904 -0.6659
vn 0.6872 -0.2902 -0.6660
vn -0.6873 -0.2900 0.6660
vn -0.6872 -0.2904 0.6659
vn 0.4556 0.7730 -0.4415
vn 0.7147 -0.0978 -0.6926
vn 0.7144 -0.0980 -0.6928
vn 0.7146 -0.0984 -0.6926
vn -0.6334 -0.4711 0.6138
vn -0.6334 -0.4712 0.6138
vn 0.3386 0.8819 -0.3281
vn 0.3385 0.8819 -0.3280
vn -0.5553 -0.6341 0.5381
vn -0.5552 -0.6343 0.5380
vn 0.2086 0.9569 -0.2021
vn 0.2086 0.9569 -0.2022
vn -0.4556 -0.7730 0.4415
vn -0.4555 -0.7731 0.4414
vn -0.4557 -0.7729 0.4416
vn 0.0703 0.9952 -0.0682
vn -0.3385 -0.8819 0.3281
vn -0.3385 -0.8819 0.3280
vn -0.0703 0.9952 0.0682
vn -0.2084 -0.9570 0.2019
vn -0.2086 0.9569 0.2022
vn -0.0705 -0.9952 0.0683
vn -0.3385 0.8819 0.3281
vn -0.3385 0.8819 0.3280
vn 0.0705 -0.9952 -0.0683
vn -0.4556 0.7730 0.4414
vn -0.4556 0.7729 0.4415
vn 0.2084 -0.9570 -0.2019
vn -0.5552 0.6342 0.5380
vn -0.5552 0.6343 0.5380
vn 0.3386 -0.8819 -0.3281
vn 0.3385 -0.8819 -0.3281
vn -0.6333 0.4715 0.6137
vn 0.7147 0.0980 -0.6926
vn 0.7147 0.0978 -0.6926
vn 0.4557 -0.7729 -0.4416
vn 0.4556 -0.7730 -0.4415
vn -0.6873 0.2900 0.6660
vn -0.6872 0.2903 0.6659
vn 0.6874 0.2897 -0.6660
vn 0.6872 0.2901 -0.6660
vn 0.6872 0.2902 -0.6660
vn 0.5552 -0.6343 -0.5380
vn 0.5553 -0.6342 -0.5381
vn -0.7147 0.0981 0.6925
vn -0.7147 0.0979 0.6926
vn 0.6334 0.4712 -0.6138
vn 0.6334 0.4713 -0.6138
vn -0.7102 0.0002 -0.7040
vn -0.7108 0.0007 -0.7034
vn -0.7123 0.0002 -0.7019
vn -0.7113 0.0003 -0.7029
vn -0.7113 0.0012 -0.7029
vn -0.7112 0.0009 -0.7030
vn -0.7114 0.0018 -0.7028
vn -0.7107 0.0004 -0.7035
vn -0.7106 0.0008 -0.7036
vn -0.7105 0.0005 -0.7037
vn -0.7105 0.0010 -0.7037
vn -0.7107 0.0007 -0.7035
vn -0.7109 -0.0009 -0.7033
vn -0.7107 0.0001 -0.7035
vn -0.7104 0.0002 -0.7038
vn -0.7104 0.0001 -0.7038
vn -0.7104 -0.0000 -0.7038
vn -0.7103 -0.0001 -0.7039
vn -0.7104 -0.0002 -0.7038
vn -0.7109 0.0006 -0.7033
vn -0.7105 -0.0008 -0.7037
vn -0.7106 -0.0005 -0.7036
vn -0.7106 -0.0008 -0.7036
vn -0.7108 -0.0008 -0.7034
vn -0.7114 -0.0017 -0.7028
vn -0.7112 -0.0009 -0.7030
vn -0.7115 -0.0009 -0.7027
vn 0.7103 -0.0001 0.7039
vn 0.7104 -0.0001 0.7038
vn 0.7104 -0.0002 0.7038
vn 0.7105 -0.0000 0.7037
vn 0.7109 0.0007 0.7033
vn 0.7106 -0.0003 0.7035
vn 0.7104 -0.0013 0.7038
vn 0.7105 -0.0001 0.7037
vn 0.7107 -0.0008 0.7035
vn 0.7110 -0.0004 0.7032
vn 0.7114 -0.0009 0.7028
vn 0.7111 -0.0004 0.7031
vn 0.7112 -0.0002 0.7030
vn 0.7112 0.0002 0.7029
vn 0.7111 0.0005 0.7031
vn 0.7115 0.0009 0.7027
vn 0.7108 0.0003 0.7034
vn 0.7106 -0.0001 0.7036
vn 0.7105 0.0002 0.7037
vn 0.7107 0.0009 0.7035
vn 0.7103 0.0011 0.7039
vn 0.7106 0.0003 0.7036
vn 0.7109 -0.0010 0.7033
vn 0.7107 -0.0004 0.7035
vn 0.7104 0.0002 0.7038
vn 0.7103 -0.0000 0.7039
vn 0.7146 -0.0983 -0.6926
vn -0.6333 -0.4715 0.6137
vn -0.6334 0.4712 0.6138
vt 0.000000 0.000000
s 1
f 26/15/7 18/15/8 10/15/7
f 56/15/9 64/15/10 72/15/9
f 37/15/11 70/15/12 69/15/12
f 24/15/13 57/15/14 56/15/14
f 12/15/15 43/15/15 11/15/15
f 38/15/16 71/15/17 70/15/17
f 25/15/18 58/15/19 57/15/19
f 13/15/20 44/15/20 12/15/20
f 39/15/21 72/15/22 71/15/23
f 26/15/24 59/15/25 58/15/25
f 14/15/26 45/15/27 13/15/26
f 27/15/28 60/15/29 59/15/29
f 15/15/30 46/15/31 14/15/30
f 28/15/32 61/15/33 60/15/34
f 16/15/35 47/15/35 15/15/35
f 29/15/36 62/15/37 61/15/37
f 17/15/38 48/15/38 16/15/38
f 30/15/39 63/15/39 62/15/39
f 18/15/40 49/15/40 17/15/40
f 31/15/41 64/15/41 63/15/41
f 19/15/42 50/15/43 18/15/42
f 32/15/44 65/15/44 64/15/44
f 20/15/45 51/15/46 19/15/45
f 33/15/47 66/15/47 65/15/47
f 21/15/48 52/15/49 20/15/48
f 34/15/50 67/15/51 66/15/51
f 22/15/52 53/15/52 21/15/52
f 9/15/53 72/15/54 40/15/53
f 35/15/55 68/15/56 67/15/56
f 23/15/57 54/15/58 22/15/57
f 10/15/59 41/15/60 9/15/61
f 36/15/62 69/15/63 68/15/63
f 24/15/64 55/15/65 23/15/64
f 11/15/66 42/15/67 10/15/66
f 10/15/7 9/15/68 40/15/69
f 40/15/69 39/15/70 38/15/71
f 38/15/71 37/15/72 36/15/73
f 36/15/73 35/15/74 34/15/75
f 34/15/75 33/15/76 32/15/77
f 32/15/77 31/15/78 30/15/79
f 30/15/79 29/15/80 28/15/81
f 28/15/81 27/15/82 26/15/7
f 26/15/7 25/15/83 24/15/84
f 24/15/84 23/15/85 22/15/8
f 22/15/8 21/15/86 20/15/85
f 20/15/85 19/15/87 18/15/8
f 18/15/8 17/15/88 16/15/89
f 16/15/89 15/15/90 14/15/91
f 14/15/91 13/15/92 12/15/93
f 12/15/93 11/15/94 10/15/7
f 10/15/7 40/15/69 38/15/71
f 38/15/71 36/15/73 34/15/75
f 34/15/75 32/15/77 30/15/79
f 30/15/79 28/15/81 26/15/7
f 26/15/7 24/15/84 22/15/8
f 22/15/8 20/15/85 18/15/8
f 18/15/8 16/15/89 14/15/91
f 14/15/91 12/15/93 10/15/7
f 10/15/7 38/15/71 34/15/75
f 34/15/75 30/15/79 26/15/7
f 26/15/7 22/15/8 18/15/8
f 18/15/8 14/15/91 10/15/7
f 10/15/7 34/15/75 26/15/7
f 72/15/9 41/15/95 42/15/96
f 42/15/96 43/15/97 44/15/98
f 44/15/98 45/15/99 46/15/100
f 46/15/100 47/15/101 48/15/102
f 48/15/102 49/15/103 50/15/102
f 50/15/102 51/15/10 52/15/104
f 52/15/104 53/15/105 54/15/106
f 54/15/106 55/15/107 56/15/9
f 56/15/9 57/15/108 58/15/109
f 58/15/109 59/15/110 60/15/111
f 60/15/111 61/15/112 62/15/113
f 62/15/113 63/15/114 64/15/10
f 64/15/10 65/15/115 66/15/116
f 66/15/116 67/15/117 68/15/118
f 68/15/118 69/15/119 70/15/9
f 70/15/9 71/15/120 72/15/9
f 72/15/9 42/15/96 44/15/98
f 44/15/98 46/15/100 48/15/102
f 48/15/102 50/15/102 52/15/104
f 52/15/104 54/15/106 56/15/9
f 56/15/9 58/15/109 60/15/111
f 60/15/111 62/15/113 64/15/10
f 64/15/10 66/15/116 68/15/118
f 68/15/118 70/15/9 72/15/9
f 72/15/9 44/15/98 48/15/102
f 48/15/102 52/15/104 56/15/9
f 56/15/9 60/15/111 64/15/10
f 64/15/10 68/15/118 72/15/9
f 72/15/9 48/15/102 56/15/9
f 37/15/11 38/15/11 70/15/12
f 24/15/13 25/15/13 57/15/14
f 12/15/15 44/15/15 43/15/15
f 38/15/16 39/15/16 71/15/17
f 25/15/18 26/15/18 58/15/19
f 13/15/20 45/15/20 44/15/20
f 39/15/21 40/15/121 72/15/22
f 26/15/24 27/15/122 59/15/25
f 14/15/26 46/15/27 45/15/27
f 27/15/28 28/15/28 60/15/29
f 15/15/30 47/15/31 46/15/31
f 28/15/32 29/15/32 61/15/33
f 16/15/35 48/15/35 47/15/35
f 29/15/36 30/15/36 62/15/37
f 17/15/38 49/15/38 48/15/38
f 30/15/39 31/15/39 63/15/39
f 18/15/40 50/15/40 49/15/40
f 31/15/41 32/15/41 64/15/41
f 19/15/42 51/15/43 50/15/43
f 32/15/44 33/15/44 65/15/44
f 20/15/45 52/15/46 51/15/46
f 33/15/47 34/15/47 66/15/47
f 21/15/48 53/15/49 52/15/49
f 34/15/50 35/15/50 67/15/51
f 22/15/52 54/15/123 53/15/52
f 9/15/53 41/15/54 72/15/54
f 35/15/55 36/15/55 68/15/56
f 23/15/57 55/15/58 54/15/58
f 10/15/59 42/15/60 41/15/60
f 36/15/62 37/15/62 69/15/63
f 24/15/64 56/15/65 55/15/65
f 11/15/66 43/15/67 42/15/67
