# Blender 4.3.0
# www.blender.org
o bar.003
v 10.703312 0.047782 -94.467262
v 10.697487 0.075097 -94.461372
v 10.688017 0.100272 -94.451820
v 10.675277 0.122337 -94.438950
v 10.659746 0.140442 -94.423279
v 10.642036 0.153897 -94.405388
v 10.622817 0.162187 -94.385979
v 10.602827 0.164982 -94.365799
v 10.582842 0.162187 -94.345612
v 10.563626 0.153897 -94.326202
v 10.545912 0.140442 -94.308311
v 10.530381 0.122337 -94.292633
v 10.517642 0.100272 -94.279770
v 10.508172 0.075097 -94.270203
v 10.502347 0.047782 -94.264320
v 10.500377 0.019377 -94.262329
v 10.502347 -0.009033 -94.264320
v 10.508172 -0.036343 -94.270203
v 10.517642 -0.061513 -94.279770
v 10.530381 -0.083583 -94.292633
v 10.545912 -0.101693 -94.308311
v 10.563626 -0.115148 -94.326202
v 10.582842 -0.123428 -94.345612
v 10.602827 -0.126228 -94.365799
v 10.622817 -0.123428 -94.385979
v 10.642036 -0.115148 -94.405388
v 10.659746 -0.101693 -94.423279
v 10.675277 -0.083583 -94.438950
v 10.688017 -0.061513 -94.451820
v 10.697487 -0.036343 -94.461372
v 10.703312 -0.009033 -94.467270
v 10.705276 0.019377 -94.469254
v 14.899067 0.047783 -90.137489
v 14.893236 0.075098 -90.131607
v 14.883772 0.100273 -90.122040
v 14.871032 0.122338 -90.109177
v 14.855501 0.140443 -90.093498
v 14.837787 0.153897 -90.075607
v 14.818571 0.162188 -90.056198
v 14.798582 0.164983 -90.036018
v 14.778597 0.162188 -90.015831
v 14.759372 0.153897 -89.996429
v 14.741657 0.140443 -89.978539
v 14.726137 0.122338 -89.962860
v 14.713396 0.100273 -89.949989
v 14.703926 0.075098 -89.940437
v 14.698097 0.047783 -89.934547
v 14.696127 0.019378 -89.932564
v 14.698097 -0.009032 -89.934547
v 14.703926 -0.036337 -89.940437
v 14.713396 -0.061512 -89.949989
v 14.726137 -0.083582 -89.962860
v 14.741657 -0.101692 -89.978539
v 14.759372 -0.115147 -89.996429
v 14.778597 -0.123427 -90.015831
v 14.798582 -0.126227 -90.036018
v 14.818571 -0.123427 -90.056198
v 14.837787 -0.115147 -90.075607
v 14.855501 -0.101692 -90.093498
v 14.871032 -0.083582 -90.109177
v 14.883772 -0.061512 -90.122040
v 14.893236 -0.036337 -90.131607
v 14.899067 -0.009032 -90.137489
v 14.901031 0.019377 -90.139473
vn -0.7106 -0.0000 -0.7036
vn 0.7106 -0.0000 0.7036
vn 0.7107 0.0005 0.7035
vn 0.6334 -0.4713 -0.6138
vn -0.7147 -0.0981 0.6926
vn -0.7147 -0.0980 0.6926
vn 0.5552 0.6343 -0.5380
vn 0.6872 -0.2903 -0.6659
vn -0.6873 -0.2901 0.6660
vn -0.6872 -0.2904 0.6659
vn 0.4556 0.7730 -0.4415
vn 0.7148 -0.0981 -0.6924
vn 0.7143 -0.0981 -0.6929
vn 0.7146 -0.0985 -0.6926
vn -0.6335 -0.4711 0.6139
vn -0.6334 -0.4712 0.6138
vn 0.3386 0.8819 -0.3281
vn 0.3385 0.8819 -0.3281
vn -0.5553 -0.6342 0.5381
vn -0.5552 -0.6342 0.5380
vn 0.2086 0.9569 -0.2022
vn -0.4557 -0.7729 0.4416
vn -0.4556 -0.7730 0.4415
vn -0.4557 -0.7728 0.4416
vn 0.0703 0.9952 -0.0682
vn -0.3385 -0.8819 0.3281
vn -0.0703 0.9952 0.0682
vn -0.2084 -0.9570 0.2019
vn -0.2086 0.9569 0.2022
vn -0.2086 0.9569 0.2021
vn -0.0705 -0.9952 0.0683
vn -0.3385 0.8819 0.3281
vn 0.0705 -0.9952 -0.0683
vn -0.4556 0.7730 0.4415
vn -0.4557 0.7729 0.4416
vn 0.2084 -0.9570 -0.2019
vn -0.5552 0.6343 0.5380
vn 0.3386 -0.8819 -0.3281
vn 0.3385 -0.8819 -0.3281
vn -0.6333 0.4714 0.6137
vn -0.6332 0.4716 0.6136
vn 0.7147 0.0980 -0.6926
vn 0.7147 0.0978 -0.6926
vn 0.4557 -0.7729 -0.4415
vn 0.4557 -0.7729 -0.4416
vn -0.6873 0.2900 0.6660
vn -0.6872 0.2903 0.6659
vn 0.6873 0.2900 -0.6660
vn 0.6872 0.2902 -0.6660
vn 0.5552 -0.6342 -0.5380
vn 0.5553 -0.6342 -0.5381
vn -0.7147 0.0981 0.6925
vn -0.7147 0.0980 0.6926
vn 0.6334 0.4712 -0.6138
vn 0.6334 0.4713 -0.6138
vn -0.7103 0.0002 -0.7039
vn -0.7108 0.0007 -0.7034
vn -0.7120 0.0003 -0.7021
vn -0.7112 0.0003 -0.7030
vn -0.7115 0.0009 -0.7027
vn -0.7112 0.0009 -0.7030
vn -0.7114 0.0018 -0.7028
vn -0.7106 0.0008 -0.7036
vn -0.7106 0.0005 -0.7036
vn -0.7105 0.0010 -0.7037
vn -0.7107 0.0008 -0.7035
vn -0.7109 -0.0009 -0.7033
vn -0.7106 -0.0003 -0.7036
vn -0.7104 0.0002 -0.7038
vn -0.7104 0.0001 -0.7038
vn -0.7104 -0.0000 -0.7038
vn -0.7104 -0.0001 -0.7038
vn -0.7105 -0.0000 -0.7037
vn -0.7104 -0.0002 -0.7038
vn -0.7106 0.0003 -0.7036
vn -0.7109 0.0006 -0.7033
vn -0.7105 -0.0008 -0.7037
vn -0.7106 -0.0005 -0.7036
vn -0.7106 -0.0008 -0.7036
vn -0.7108 -0.0008 -0.7034
vn -0.7113 -0.0017 -0.7028
vn -0.7112 -0.0010 -0.7030
vn -0.7115 -0.0009 -0.7027
vn 0.7103 -0.0001 0.7039
vn 0.7104 -0.0001 0.7038
vn 0.7104 -0.0002 0.7038
vn 0.7107 0.0003 0.7035
vn 0.7108 0.0006 0.7033
vn 0.7107 -0.0004 0.7035
vn 0.7104 -0.0010 0.7038
vn 0.7106 -0.0001 0.7036
vn 0.7107 -0.0008 0.7035
vn 0.7106 -0.0003 0.7036
vn 0.7105 0.0001 0.7037
vn 0.7110 -0.0004 0.7032
vn 0.7114 -0.0009 0.7027
vn 0.7112 -0.0005 0.7030
vn 0.7112 -0.0002 0.7030
vn 0.7112 0.0002 0.7030
vn 0.7111 0.0005 0.7031
vn 0.7115 0.0009 0.7027
vn 0.7109 0.0004 0.7033
vn 0.7106 0.0003 0.7036
vn 0.7107 0.0009 0.7035
vn 0.7104 0.0010 0.7038
vn 0.7107 0.0004 0.7035
vn 0.7109 -0.0010 0.7033
vn 0.7104 0.0003 0.7038
vn 0.7107 -0.0000 0.7035
vn 0.7104 0.0001 0.7038
vn 0.7146 -0.0982 -0.6926
vn -0.6333 -0.4715 0.6137
vn -0.6334 0.4712 0.6138
vt 0.000000 0.000000
s 1
f 18/1/1 10/1/1 2/1/1
f 48/1/2 56/1/3 64/1/2
f 29/1/4 62/1/4 61/1/4
f 16/1/5 49/1/6 48/1/6
f 4/1/7 35/1/7 3/1/7
f 30/1/8 63/1/8 62/1/8
f 17/1/9 50/1/10 49/1/10
f 5/1/11 36/1/11 4/1/11
f 31/1/12 64/1/13 63/1/14
f 18/1/15 51/1/16 50/1/16
f 6/1/17 37/1/18 5/1/17
f 19/1/19 52/1/20 51/1/20
f 7/1/21 38/1/21 6/1/21
f 20/1/22 53/1/23 52/1/24
f 8/1/25 39/1/25 7/1/25
f 21/1/26 54/1/26 53/1/26
f 9/1/27 40/1/27 8/1/27
f 22/1/28 55/1/28 54/1/28
f 10/1/29 41/1/30 9/1/29
f 23/1/31 56/1/31 55/1/31
f 11/1/32 42/1/32 10/1/32
f 24/1/33 57/1/33 56/1/33
f 12/1/34 43/1/35 11/1/34
f 25/1/36 58/1/36 57/1/36
f 13/1/37 44/1/37 12/1/37
f 26/1/38 59/1/39 58/1/39
f 14/1/40 45/1/41 13/1/40
f 1/1/42 64/1/43 32/1/42
f 27/1/44 60/1/45 59/1/45
f 15/1/46 46/1/47 14/1/46
f 2/1/48 33/1/49 1/1/48
f 28/1/50 61/1/51 60/1/51
f 16/1/52 47/1/53 15/1/52
f 3/1/54 34/1/55 2/1/54
f 2/1/1 1/1/56 32/1/57
f 32/1/57 31/1/58 30/1/59
f 30/1/59 29/1/60 28/1/61
f 28/1/61 27/1/62 26/1/57
f 26/1/57 25/1/63 24/1/64
f 24/1/64 23/1/65 22/1/66
f 22/1/66 21/1/67 20/1/68
f 20/1/68 19/1/69 18/1/1
f 18/1/1 17/1/70 16/1/71
f 16/1/71 15/1/72 14/1/73
f 14/1/73 13/1/74 12/1/75
f 12/1/75 11/1/76 10/1/1
f 10/1/1 9/1/77 8/1/78
f 8/1/78 7/1/79 6/1/80
f 6/1/80 5/1/81 4/1/82
f 4/1/82 3/1/83 2/1/1
f 2/1/1 32/1/57 30/1/59
f 30/1/59 28/1/61 26/1/57
f 26/1/57 24/1/64 22/1/66
f 22/1/66 20/1/68 18/1/1
f 18/1/1 16/1/71 14/1/73
f 14/1/73 12/1/75 10/1/1
f 10/1/1 8/1/78 6/1/80
f 6/1/80 4/1/82 2/1/1
f 2/1/1 30/1/59 26/1/57
f 26/1/57 22/1/66 18/1/1
f 18/1/1 14/1/73 10/1/1
f 10/1/1 6/1/80 2/1/1
f 2/1/1 26/1/57 18/1/1
f 64/1/2 33/1/84 34/1/85
f 34/1/85 35/1/86 36/1/87
f 36/1/87 37/1/88 38/1/89
f 38/1/89 39/1/90 40/1/91
f 40/1/91 41/1/92 42/1/93
f 42/1/93 43/1/94 44/1/95
f 44/1/95 45/1/96 46/1/97
f 46/1/97 47/1/98 48/1/2
f 48/1/2 49/1/99 50/1/100
f 50/1/100 51/1/101 52/1/102
f 52/1/102 53/1/91 54/1/103
f 54/1/103 55/1/104 56/1/3
f 56/1/3 57/1/105 58/1/106
f 58/1/106 59/1/107 60/1/89
f 60/1/89 61/1/108 62/1/109
f 62/1/109 63/1/110 64/1/2
f 64/1/2 34/1/85 36/1/87
f 36/1/87 38/1/89 40/1/91
f 40/1/91 42/1/93 44/1/95
f 44/1/95 46/1/97 48/1/2
f 48/1/2 50/1/100 52/1/102
f 52/1/102 54/1/103 56/1/3
f 56/1/3 58/1/106 60/1/89
f 60/1/89 62/1/109 64/1/2
f 64/1/2 36/1/87 40/1/91
f 40/1/91 44/1/95 48/1/2
f 48/1/2 52/1/102 56/1/3
f 56/1/3 60/1/89 64/1/2
f 64/1/2 40/1/91 48/1/2
f 29/1/4 30/1/4 62/1/4
f 16/1/5 17/1/5 49/1/6
f 4/1/7 36/1/7 35/1/7
f 30/1/8 31/1/8 63/1/8
f 17/1/9 18/1/9 50/1/10
f 5/1/11 37/1/11 36/1/11
f 31/1/12 32/1/111 64/1/13
f 18/1/15 19/1/112 51/1/16
f 6/1/17 38/1/18 37/1/18
f 19/1/19 20/1/19 52/1/20
f 7/1/21 39/1/21 38/1/21
f 20/1/22 21/1/22 53/1/23
f 8/1/25 40/1/25 39/1/25
f 21/1/26 22/1/26 54/1/26
f 9/1/27 41/1/27 40/1/27
f 22/1/28 23/1/28 55/1/28
f 10/1/29 42/1/30 41/1/30
f 23/1/31 24/1/31 56/1/31
f 11/1/32 43/1/32 42/1/32
f 24/1/33 25/1/33 57/1/33
f 12/1/34 44/1/35 43/1/35
f 25/1/36 26/1/36 58/1/36
f 13/1/37 45/1/37 44/1/37
f 26/1/38 27/1/38 59/1/39
f 14/1/40 46/1/113 45/1/41
f 1/1/42 33/1/43 64/1/43
f 27/1/44 28/1/44 60/1/45
f 15/1/46 47/1/47 46/1/47
f 2/1/48 34/1/49 33/1/49
f 28/1/50 29/1/50 61/1/51
f 16/1/52 48/1/53 47/1/53
f 3/1/54 35/1/55 34/1/55
o bar.002
v -9.511538 0.047782 -94.467262
v -9.517363 0.075097 -94.461372
v -9.526833 0.100272 -94.451820
v -9.539573 0.122337 -94.438950
v -9.555103 0.140442 -94.423279
v -9.572813 0.153897 -94.405388
v -9.592032 0.162187 -94.385979
v -9.612022 0.164982 -94.365799
v -9.632008 0.162187 -94.345612
v -9.651223 0.153897 -94.326202
v -9.668938 0.140442 -94.308311
v -9.684468 0.122337 -94.292633
v -9.697207 0.100272 -94.279770
v -9.706677 0.075097 -94.270203
v -9.712502 0.047782 -94.264320
v -9.714473 0.019377 -94.262329
v -9.712502 -0.009033 -94.264320
v -9.706677 -0.036343 -94.270203
v -9.697207 -0.061513 -94.279770
v -9.684468 -0.083583 -94.292633
v -9.668938 -0.101693 -94.308311
v -9.651223 -0.115148 -94.326202
v -9.632008 -0.123428 -94.345612
v -9.612022 -0.126228 -94.365799
v -9.592032 -0.123428 -94.385979
v -9.572813 -0.115148 -94.405388
v -9.555103 -0.101693 -94.423279
v -9.539573 -0.083583 -94.438950
v -9.526833 -0.061513 -94.451820
v -9.517363 -0.036343 -94.461372
v -9.511538 -0.009033 -94.467270
v -9.509573 0.019377 -94.469254
v -5.315783 0.047783 -90.137489
v -5.321613 0.075098 -90.131607
v -5.331078 0.100273 -90.122040
v -5.343818 0.122338 -90.109177
v -5.359348 0.140443 -90.093498
v -5.377063 0.153897 -90.075607
v -5.396278 0.162188 -90.056198
v -5.416268 0.164983 -90.036018
v -5.436253 0.162188 -90.015831
v -5.455478 0.153897 -89.996429
v -5.473193 0.140443 -89.978539
v -5.488713 0.122338 -89.962860
v -5.501453 0.100273 -89.949989
v -5.510923 0.075098 -89.940437
v -5.516753 0.047783 -89.934547
v -5.518723 0.019378 -89.932564
v -5.516753 -0.009032 -89.934547
v -5.510923 -0.036337 -89.940437
v -5.501453 -0.061512 -89.949989
v -5.488713 -0.083582 -89.962860
v -5.473193 -0.101692 -89.978539
v -5.455478 -0.115147 -89.996429
v -5.436253 -0.123427 -90.015831
v -5.416268 -0.126227 -90.036018
v -5.396278 -0.123427 -90.056198
v -5.377063 -0.115147 -90.075607
v -5.359348 -0.101692 -90.093498
v -5.343818 -0.083582 -90.109177
v -5.331078 -0.061512 -90.122040
v -5.321613 -0.036337 -90.131607
v -5.315783 -0.009032 -90.137489
v -5.313818 0.019377 -90.139473
vn -0.7106 -0.0000 -0.7036
vn 0.7106 -0.0000 0.7036
vn 0.7107 0.0005 0.7035
vn 0.6334 -0.4713 -0.6138
vn -0.7147 -0.0981 0.6926
vn -0.7147 -0.0980 0.6926
vn 0.5552 0.6343 -0.5380
vn 0.6872 -0.2903 -0.6659
vn -0.6873 -0.2901 0.6660
vn -0.6872 -0.2904 0.6659
vn 0.4556 0.7730 -0.4415
vn 0.7148 -0.0981 -0.6924
vn 0.7143 -0.0981 -0.6929
vn 0.7146 -0.0985 -0.6926
vn -0.6335 -0.4711 0.6139
vn -0.6334 -0.4712 0.6138
vn 0.3386 0.8819 -0.3281
vn 0.3385 0.8819 -0.3281
vn -0.5553 -0.6342 0.5381
vn -0.5552 -0.6342 0.5380
vn 0.2086 0.9569 -0.2022
vn -0.4557 -0.7729 0.4416
vn -0.4556 -0.7730 0.4415
vn -0.4557 -0.7728 0.4416
vn 0.0703 0.9952 -0.0682
vn -0.3385 -0.8819 0.3281
vn -0.0703 0.9952 0.0682
vn -0.2084 -0.9570 0.2019
vn -0.2086 0.9569 0.2022
vn -0.2086 0.9569 0.2021
vn -0.0705 -0.9952 0.0683
vn -0.3385 0.8819 0.3281
vn 0.0705 -0.9952 -0.0683
vn -0.4556 0.7730 0.4415
vn -0.4557 0.7729 0.4416
vn 0.2084 -0.9570 -0.2019
vn -0.5552 0.6343 0.5380
vn 0.3386 -0.8819 -0.3281
vn 0.3385 -0.8819 -0.3281
vn -0.6333 0.4714 0.6137
vn -0.6332 0.4716 0.6136
vn 0.7147 0.0980 -0.6926
vn 0.7147 0.0978 -0.6926
vn 0.4557 -0.7729 -0.4415
vn 0.4557 -0.7729 -0.4416
vn -0.6873 0.2900 0.6660
vn -0.6872 0.2903 0.6659
vn 0.6873 0.2900 -0.6660
vn 0.6872 0.2902 -0.6660
vn 0.5552 -0.6342 -0.5380
vn 0.5553 -0.6342 -0.5381
vn -0.7147 0.0981 0.6925
vn -0.7147 0.0980 0.6926
vn 0.6334 0.4712 -0.6138
vn 0.6334 0.4713 -0.6138
vn -0.7103 0.0002 -0.7039
vn -0.7108 0.0007 -0.7034
vn -0.7120 0.0003 -0.7021
vn -0.7112 0.0003 -0.7030
vn -0.7115 0.0009 -0.7027
vn -0.7112 0.0009 -0.7030
vn -0.7114 0.0018 -0.7028
vn -0.7106 0.0008 -0.7036
vn -0.7106 0.0005 -0.7036
vn -0.7105 0.0010 -0.7037
vn -0.7107 0.0008 -0.7035
vn -0.7109 -0.0009 -0.7033
vn -0.7106 -0.0003 -0.7036
vn -0.7104 0.0002 -0.7038
vn -0.7104 0.0001 -0.7038
vn -0.7104 -0.0000 -0.7038
vn -0.7104 -0.0001 -0.7038
vn -0.7105 -0.0000 -0.7037
vn -0.7104 -0.0002 -0.7038
vn -0.7106 0.0003 -0.7036
vn -0.7109 0.0006 -0.7033
vn -0.7105 -0.0008 -0.7037
vn -0.7106 -0.0005 -0.7036
vn -0.7106 -0.0008 -0.7036
vn -0.7108 -0.0008 -0.7034
vn -0.7113 -0.0017 -0.7028
vn -0.7112 -0.0010 -0.7030
vn -0.7115 -0.0009 -0.7027
vn 0.7103 -0.0001 0.7039
vn 0.7104 -0.0001 0.7038
vn 0.7104 -0.0002 0.7038
vn 0.7107 0.0003 0.7035
vn 0.7108 0.0006 0.7033
vn 0.7107 -0.0004 0.7035
vn 0.7104 -0.0010 0.7038
vn 0.7106 -0.0001 0.7036
vn 0.7107 -0.0008 0.7035
vn 0.7106 -0.0003 0.7036
vn 0.7105 0.0001 0.7037
vn 0.7110 -0.0004 0.7032
vn 0.7114 -0.0009 0.7027
vn 0.7112 -0.0005 0.7030
vn 0.7112 -0.0002 0.7030
vn 0.7112 0.0002 0.7030
vn 0.7111 0.0005 0.7031
vn 0.7115 0.0009 0.7027
vn 0.7109 0.0004 0.7033
vn 0.7106 0.0003 0.7036
vn 0.7107 0.0009 0.7035
vn 0.7104 0.0010 0.7038
vn 0.7107 0.0004 0.7035
vn 0.7109 -0.0010 0.7033
vn 0.7104 0.0003 0.7038
vn 0.7107 -0.0000 0.7035
vn 0.7104 0.0001 0.7038
vn 0.7146 -0.0982 -0.6926
vn -0.6333 -0.4715 0.6137
vn -0.6334 0.4712 0.6138
vt 0.000000 0.000000
s 1
f 82/2/114 74/2/114 66/2/114
f 112/2/115 120/2/116 128/2/115
f 93/2/117 126/2/117 125/2/117
f 80/2/118 113/2/119 112/2/119
f 68/2/120 99/2/120 67/2/120
f 94/2/121 127/2/121 126/2/121
f 81/2/122 114/2/123 113/2/123
f 69/2/124 100/2/124 68/2/124
f 95/2/125 128/2/126 127/2/127
f 82/2/128 115/2/129 114/2/129
f 70/2/130 101/2/131 69/2/130
f 83/2/132 116/2/133 115/2/133
f 71/2/134 102/2/134 70/2/134
f 84/2/135 117/2/136 116/2/137
f 72/2/138 103/2/138 71/2/138
f 85/2/139 118/2/139 117/2/139
f 73/2/140 104/2/140 72/2/140
f 86/2/141 119/2/141 118/2/141
f 74/2/142 105/2/143 73/2/142
f 87/2/144 120/2/144 119/2/144
f 75/2/145 106/2/145 74/2/145
f 88/2/146 121/2/146 120/2/146
f 76/2/147 107/2/148 75/2/147
f 89/2/149 122/2/149 121/2/149
f 77/2/150 108/2/150 76/2/150
f 90/2/151 123/2/152 122/2/152
f 78/2/153 109/2/154 77/2/153
f 65/2/155 128/2/156 96/2/155
f 91/2/157 124/2/158 123/2/158
f 79/2/159 110/2/160 78/2/159
f 66/2/161 97/2/162 65/2/161
f 92/2/163 125/2/164 124/2/164
f 80/2/165 111/2/166 79/2/165
f 67/2/167 98/2/168 66/2/167
f 66/2/114 65/2/169 96/2/170
f 96/2/170 95/2/171 94/2/172
f 94/2/172 93/2/173 92/2/174
f 92/2/174 91/2/175 90/2/170
f 90/2/170 89/2/176 88/2/177
f 88/2/177 87/2/178 86/2/179
f 86/2/179 85/2/180 84/2/181
f 84/2/181 83/2/182 82/2/114
f 82/2/114 81/2/183 80/2/184
f 80/2/184 79/2/185 78/2/186
f 78/2/186 77/2/187 76/2/188
f 76/2/188 75/2/189 74/2/114
f 74/2/114 73/2/190 72/2/191
f 72/2/191 71/2/192 70/2/193
f 70/2/193 69/2/194 68/2/195
f 68/2/195 67/2/196 66/2/114
f 66/2/114 96/2/170 94/2/172
f 94/2/172 92/2/174 90/2/170
f 90/2/170 88/2/177 86/2/179
f 86/2/179 84/2/181 82/2/114
f 82/2/114 80/2/184 78/2/186
f 78/2/186 76/2/188 74/2/114
f 74/2/114 72/2/191 70/2/193
f 70/2/193 68/2/195 66/2/114
f 66/2/114 94/2/172 90/2/170
f 90/2/170 86/2/179 82/2/114
f 82/2/114 78/2/186 74/2/114
f 74/2/114 70/2/193 66/2/114
f 66/2/114 90/2/170 82/2/114
f 128/2/115 97/2/197 98/2/198
f 98/2/198 99/2/199 100/2/200
f 100/2/200 101/2/201 102/2/202
f 102/2/202 103/2/203 104/2/204
f 104/2/204 105/2/205 106/2/206
f 106/2/206 107/2/207 108/2/208
f 108/2/208 109/2/209 110/2/210
f 110/2/210 111/2/211 112/2/115
f 112/2/115 113/2/212 114/2/213
f 114/2/213 115/2/214 116/2/215
f 116/2/215 117/2/204 118/2/216
f 118/2/216 119/2/217 120/2/116
f 120/2/116 121/2/218 122/2/219
f 122/2/219 123/2/220 124/2/202
f 124/2/202 125/2/221 126/2/222
f 126/2/222 127/2/223 128/2/115
f 128/2/115 98/2/198 100/2/200
f 100/2/200 102/2/202 104/2/204
f 104/2/204 106/2/206 108/2/208
f 108/2/208 110/2/210 112/2/115
f 112/2/115 114/2/213 116/2/215
f 116/2/215 118/2/216 120/2/116
f 120/2/116 122/2/219 124/2/202
f 124/2/202 126/2/222 128/2/115
f 128/2/115 100/2/200 104/2/204
f 104/2/204 108/2/208 112/2/115
f 112/2/115 116/2/215 120/2/116
f 120/2/116 124/2/202 128/2/115
f 128/2/115 104/2/204 112/2/115
f 93/2/117 94/2/117 126/2/117
f 80/2/118 81/2/118 113/2/119
f 68/2/120 100/2/120 99/2/120
f 94/2/121 95/2/121 127/2/121
f 81/2/122 82/2/122 114/2/123
f 69/2/124 101/2/124 100/2/124
f 95/2/125 96/2/224 128/2/126
f 82/2/128 83/2/225 115/2/129
f 70/2/130 102/2/131 101/2/131
f 83/2/132 84/2/132 116/2/133
f 71/2/134 103/2/134 102/2/134
f 84/2/135 85/2/135 117/2/136
f 72/2/138 104/2/138 103/2/138
f 85/2/139 86/2/139 118/2/139
f 73/2/140 105/2/140 104/2/140
f 86/2/141 87/2/141 119/2/141
f 74/2/142 106/2/143 105/2/143
f 87/2/144 88/2/144 120/2/144
f 75/2/145 107/2/145 106/2/145
f 88/2/146 89/2/146 121/2/146
f 76/2/147 108/2/148 107/2/148
f 89/2/149 90/2/149 122/2/149
f 77/2/150 109/2/150 108/2/150
f 90/2/151 91/2/151 123/2/152
f 78/2/153 110/2/226 109/2/154
f 65/2/155 97/2/156 128/2/156
f 91/2/157 92/2/157 124/2/158
f 79/2/159 111/2/160 110/2/160
f 66/2/161 98/2/162 97/2/162
f 92/2/163 93/2/163 125/2/164
f 80/2/165 112/2/166 111/2/166
f 67/2/167 99/2/168 98/2/168
