# Blender 4.2.2 LTS
# www.blender.org
mtllib center.mtl
o center
v 0.146280 0.001218 0.007934
v 0.143573 0.001218 -0.018239
v 0.135812 0.001218 -0.043380
v 0.123295 0.001218 -0.066524
v 0.106504 0.001218 -0.086782
v 0.086083 0.001218 -0.103374
v 0.062817 0.001218 -0.115664
v 0.037601 0.001218 -0.123179
v 0.011403 0.001218 -0.125629
v -0.014769 0.001218 -0.122922
v -0.039911 0.001218 -0.115161
v -0.063055 0.001218 -0.102644
v -0.083313 0.001218 -0.085853
v -0.099905 0.001218 -0.065432
v -0.112195 0.001218 -0.042166
v -0.119709 0.001218 -0.016950
v -0.122160 0.001218 0.009248
v -0.119453 0.001218 0.035420
v -0.111692 0.001218 0.060562
v -0.099175 0.001218 0.083706
v -0.082384 0.001218 0.103964
v -0.061962 0.001218 0.120556
v -0.038697 0.001218 0.132846
v -0.013481 0.001218 0.140360
v 0.012717 0.001218 0.142811
v 0.038890 0.001218 0.140104
v 0.064031 0.001218 0.132343
v 0.087175 0.001218 0.119826
v 0.107433 0.001218 0.103034
v 0.124025 0.001218 0.082613
v 0.136315 0.001218 0.059348
v 0.143830 0.001218 0.034131
v 0.125740 0.001218 -0.014601
v 0.119031 0.001218 -0.036333
v 0.108212 0.001218 -0.056339
v 0.093697 0.001218 -0.073849
v 0.076045 0.001218 -0.088192
v 0.055934 0.001218 -0.098815
v 0.034138 0.001218 -0.105311
v 0.011492 0.001218 -0.107429
v -0.011131 0.001218 -0.105089
v -0.032864 0.001218 -0.098381
v -0.052869 0.001218 -0.087561
v -0.070380 0.001218 -0.073046
v -0.084723 0.001218 -0.055394
v -0.095346 0.001218 -0.035284
v -0.101842 0.001218 -0.013487
v -0.103960 0.001218 0.009159
v -0.101620 0.001218 0.031782
v -0.094911 0.001218 0.053515
v -0.084092 0.001218 0.073521
v -0.069577 0.001218 0.091031
v -0.051925 0.001218 0.105374
v -0.031814 0.001218 0.115997
v -0.010017 0.001218 0.122493
v 0.012628 0.001218 0.124611
v 0.035252 0.001218 0.122271
v 0.056984 0.001218 0.115562
v 0.076990 0.001218 0.104743
v 0.094500 0.001218 0.090228
v 0.108843 0.001218 0.072576
v 0.119466 0.001218 0.052465
v 0.125962 0.001218 0.030668
v 0.128080 0.001218 0.008023
v 0.125740 0.134798 -0.014601
v 0.119031 0.134798 -0.036333
v 0.108212 0.134798 -0.056339
v 0.093697 0.134798 -0.073849
v 0.076045 0.134798 -0.088192
v 0.055934 0.134798 -0.098815
v 0.034138 0.134798 -0.105311
v 0.011492 0.134798 -0.107429
v -0.011131 0.134798 -0.105089
v -0.032864 0.134798 -0.098381
v -0.052869 0.134798 -0.087561
v -0.070380 0.134798 -0.073046
v -0.084723 0.134798 -0.055394
v -0.095346 0.134798 -0.035284
v -0.101842 0.134798 -0.013487
v -0.103960 0.134798 0.009159
v -0.101620 0.134798 0.031782
v -0.094911 0.134798 0.053515
v -0.084092 0.134798 0.073521
v -0.069577 0.134798 0.091031
v -0.051925 0.134798 0.105374
v -0.031814 0.134798 0.115997
v -0.010017 0.134798 0.122493
v 0.012628 0.134798 0.124611
v 0.035252 0.134798 0.122271
v 0.056984 0.134798 0.115562
v 0.076990 0.134798 0.104743
v 0.094500 0.134798 0.090228
v 0.108843 0.134798 0.072576
v 0.119466 0.134798 0.052465
v 0.125962 0.134798 0.030668
v 0.128080 0.134798 0.008023
v 0.125740 0.153320 -0.014601
v 0.119031 0.153320 -0.036333
v 0.108212 0.153320 -0.056339
v 0.093697 0.153320 -0.073849
v 0.076045 0.153320 -0.088192
v 0.055934 0.153320 -0.098815
v 0.034138 0.153320 -0.105311
v 0.011492 0.153320 -0.107429
v -0.011131 0.153320 -0.105089
v -0.032864 0.153320 -0.098381
v -0.052869 0.153320 -0.087561
v -0.070380 0.153320 -0.073046
v -0.084723 0.153320 -0.055394
v -0.095346 0.153320 -0.035284
v -0.101842 0.153320 -0.013487
v -0.103960 0.153320 0.009159
v -0.101620 0.153320 0.031782
v -0.094911 0.153320 0.053515
v -0.084092 0.153320 0.073521
v -0.069577 0.153320 0.091031
v -0.051925 0.153320 0.105374
v -0.031814 0.153320 0.115997
v -0.010017 0.153320 0.122493
v 0.012628 0.153320 0.124611
v 0.035252 0.153320 0.122271
v 0.056984 0.153320 0.115562
v 0.076990 0.153320 0.104743
v 0.094500 0.153320 0.090228
v 0.108843 0.153320 0.072576
v 0.119466 0.153320 0.052465
v 0.125962 0.153320 0.030668
v 0.128080 0.153320 0.008023
vn 0.4757 -0.0000 0.8796
vn -0.0000 1.0000 -0.0000
vn -0.4757 -0.0000 -0.8796
vn -0.8842 -0.0000 -0.4671
vn 0.9947 -0.0000 -0.1029
vn 0.6382 -0.0000 0.7699
vn -0.9583 -0.0000 -0.2856
vn 0.9555 -0.0000 -0.2950
vn 0.7761 -0.0000 0.6306
vn -0.9957 -0.0000 -0.0931
vn 0.8796 -0.0000 -0.4757
vn 0.8842 -0.0000 0.4671
vn -0.9947 -0.0000 0.1029
vn 0.7699 -0.0000 -0.6382
vn 0.9583 -0.0000 0.2856
vn -0.9555 -0.0000 0.2950
vn 0.6306 -0.0000 -0.7761
vn 0.9957 -0.0000 0.0931
vn -0.8796 -0.0000 0.4757
vn 0.4671 -0.0000 -0.8842
vn -0.7699 -0.0000 0.6382
vn 0.2856 -0.0000 -0.9583
vn -0.6306 -0.0000 0.7761
vn 0.0931 -0.0000 -0.9957
vn -0.4671 -0.0000 0.8842
vn -0.1029 -0.0000 -0.9947
vn -0.2856 -0.0000 0.9583
vn -0.2949 -0.0000 -0.9555
vn -0.0931 -0.0000 0.9957
vn 0.1029 -0.0000 0.9947
vn -0.6382 -0.0000 -0.7699
vn 0.2950 -0.0000 0.9555
vn -0.7761 -0.0000 -0.6306
vt 0.000000 0.000000
s 0
usemtl Pink
f 59/1/1 90/1/1 58/1/1
f 3/1/2 33/1/2 2/1/2
f 4/1/2 34/1/2 3/1/2
f 5/1/2 35/1/2 4/1/2
f 6/1/2 36/1/2 5/1/2
f 7/1/2 37/1/2 6/1/2
f 7/1/2 39/1/2 38/1/2
f 9/1/2 39/1/2 8/1/2
f 9/1/2 41/1/2 40/1/2
f 10/1/2 42/1/2 41/1/2
f 12/1/2 42/1/2 11/1/2
f 12/1/2 44/1/2 43/1/2
f 14/1/2 44/1/2 13/1/2
f 14/1/2 46/1/2 45/1/2
f 15/1/2 47/1/2 46/1/2
f 17/1/2 47/1/2 16/1/2
f 18/1/2 48/1/2 17/1/2
f 19/1/2 49/1/2 18/1/2
f 20/1/2 50/1/2 19/1/2
f 21/1/2 51/1/2 20/1/2
f 22/1/2 52/1/2 21/1/2
f 23/1/2 53/1/2 22/1/2
f 24/1/2 54/1/2 23/1/2
f 25/1/2 55/1/2 24/1/2
f 25/1/2 57/1/2 56/1/2
f 27/1/2 57/1/2 26/1/2
f 28/1/2 58/1/2 27/1/2
f 29/1/2 59/1/2 28/1/2
f 29/1/2 61/1/2 60/1/2
f 31/1/2 61/1/2 30/1/2
f 31/1/2 63/1/2 62/1/2
f 1/1/2 63/1/2 32/1/2
f 1/1/2 33/1/2 64/1/2
f 75/1/3 106/1/3 74/1/3
f 46/1/4 77/1/4 45/1/4
f 33/1/5 96/1/5 64/1/5
f 60/1/6 91/1/6 59/1/6
f 47/1/7 78/1/7 46/1/7
f 34/1/8 65/1/8 33/1/8
f 61/1/9 92/1/9 60/1/9
f 48/1/10 79/1/10 47/1/10
f 35/1/11 66/1/11 34/1/11
f 62/1/12 93/1/12 61/1/12
f 49/1/13 80/1/13 48/1/13
f 36/1/14 67/1/14 35/1/14
f 63/1/15 94/1/15 62/1/15
f 50/1/16 81/1/16 49/1/16
f 37/1/17 68/1/17 36/1/17
f 64/1/18 95/1/18 63/1/18
f 51/1/19 82/1/19 50/1/19
f 38/1/20 69/1/20 37/1/20
f 52/1/21 83/1/21 51/1/21
f 39/1/22 70/1/22 38/1/22
f 53/1/23 84/1/23 52/1/23
f 40/1/24 71/1/24 39/1/24
f 54/1/25 85/1/25 53/1/25
f 41/1/26 72/1/26 40/1/26
f 55/1/27 86/1/27 54/1/27
f 42/1/28 73/1/28 41/1/28
f 56/1/29 87/1/29 55/1/29
f 43/1/3 74/1/3 42/1/3
f 57/1/30 88/1/30 56/1/30
f 44/1/31 75/1/31 43/1/31
f 58/1/32 89/1/32 57/1/32
f 45/1/33 76/1/33 44/1/33
f 112/1/2 120/1/2 128/1/2
f 89/1/30 120/1/30 88/1/30
f 76/1/31 107/1/31 75/1/31
f 90/1/32 121/1/32 89/1/32
f 77/1/33 108/1/33 76/1/33
f 91/1/1 122/1/1 90/1/1
f 78/1/4 109/1/4 77/1/4
f 65/1/5 128/1/5 96/1/5
f 92/1/6 123/1/6 91/1/6
f 79/1/7 110/1/7 78/1/7
f 66/1/8 97/1/8 65/1/8
f 93/1/9 124/1/9 92/1/9
f 80/1/10 111/1/10 79/1/10
f 67/1/11 98/1/11 66/1/11
f 94/1/12 125/1/12 93/1/12
f 81/1/13 112/1/13 80/1/13
f 68/1/14 99/1/14 67/1/14
f 95/1/15 126/1/15 94/1/15
f 82/1/16 113/1/16 81/1/16
f 69/1/17 100/1/17 68/1/17
f 96/1/18 127/1/18 95/1/18
f 83/1/19 114/1/19 82/1/19
f 70/1/20 101/1/20 69/1/20
f 84/1/21 115/1/21 83/1/21
f 71/1/22 102/1/22 70/1/22
f 85/1/23 116/1/23 84/1/23
f 72/1/24 103/1/24 71/1/24
f 86/1/25 117/1/25 85/1/25
f 73/1/26 104/1/26 72/1/26
f 87/1/27 118/1/27 86/1/27
f 74/1/28 105/1/28 73/1/28
f 88/1/29 119/1/29 87/1/29
f 59/1/1 91/1/1 90/1/1
f 3/1/2 34/1/2 33/1/2
f 4/1/2 35/1/2 34/1/2
f 5/1/2 36/1/2 35/1/2
f 6/1/2 37/1/2 36/1/2
f 7/1/2 38/1/2 37/1/2
f 7/1/2 8/1/2 39/1/2
f 9/1/2 40/1/2 39/1/2
f 9/1/2 10/1/2 41/1/2
f 10/1/2 11/1/2 42/1/2
f 12/1/2 43/1/2 42/1/2
f 12/1/2 13/1/2 44/1/2
f 14/1/2 45/1/2 44/1/2
f 14/1/2 15/1/2 46/1/2
f 15/1/2 16/1/2 47/1/2
f 17/1/2 48/1/2 47/1/2
f 18/1/2 49/1/2 48/1/2
f 19/1/2 50/1/2 49/1/2
f 20/1/2 51/1/2 50/1/2
f 21/1/2 52/1/2 51/1/2
f 22/1/2 53/1/2 52/1/2
f 23/1/2 54/1/2 53/1/2
f 24/1/2 55/1/2 54/1/2
f 25/1/2 56/1/2 55/1/2
f 25/1/2 26/1/2 57/1/2
f 27/1/2 58/1/2 57/1/2
f 28/1/2 59/1/2 58/1/2
f 29/1/2 60/1/2 59/1/2
f 29/1/2 30/1/2 61/1/2
f 31/1/2 62/1/2 61/1/2
f 31/1/2 32/1/2 63/1/2
f 1/1/2 64/1/2 63/1/2
f 1/1/2 2/1/2 33/1/2
f 75/1/3 107/1/3 106/1/3
f 46/1/4 78/1/4 77/1/4
f 33/1/5 65/1/5 96/1/5
f 60/1/6 92/1/6 91/1/6
f 47/1/7 79/1/7 78/1/7
f 34/1/8 66/1/8 65/1/8
f 61/1/9 93/1/9 92/1/9
f 48/1/10 80/1/10 79/1/10
f 35/1/11 67/1/11 66/1/11
f 62/1/12 94/1/12 93/1/12
f 49/1/13 81/1/13 80/1/13
f 36/1/14 68/1/14 67/1/14
f 63/1/15 95/1/15 94/1/15
f 50/1/16 82/1/16 81/1/16
f 37/1/17 69/1/17 68/1/17
f 64/1/18 96/1/18 95/1/18
f 51/1/19 83/1/19 82/1/19
f 38/1/20 70/1/20 69/1/20
f 52/1/21 84/1/21 83/1/21
f 39/1/22 71/1/22 70/1/22
f 53/1/23 85/1/23 84/1/23
f 40/1/24 72/1/24 71/1/24
f 54/1/25 86/1/25 85/1/25
f 41/1/26 73/1/26 72/1/26
f 55/1/27 87/1/27 86/1/27
f 42/1/28 74/1/28 73/1/28
f 56/1/29 88/1/29 87/1/29
f 43/1/3 75/1/3 74/1/3
f 57/1/30 89/1/30 88/1/30
f 44/1/31 76/1/31 75/1/31
f 58/1/32 90/1/32 89/1/32
f 45/1/33 77/1/33 76/1/33
f 128/1/2 97/1/2 98/1/2
f 98/1/2 99/1/2 100/1/2
f 100/1/2 101/1/2 102/1/2
f 102/1/2 103/1/2 104/1/2
f 104/1/2 105/1/2 106/1/2
f 106/1/2 107/1/2 108/1/2
f 108/1/2 109/1/2 110/1/2
f 110/1/2 111/1/2 112/1/2
f 112/1/2 113/1/2 114/1/2
f 114/1/2 115/1/2 116/1/2
f 116/1/2 117/1/2 118/1/2
f 118/1/2 119/1/2 120/1/2
f 120/1/2 121/1/2 122/1/2
f 122/1/2 123/1/2 124/1/2
f 124/1/2 125/1/2 126/1/2
f 126/1/2 127/1/2 128/1/2
f 128/1/2 98/1/2 100/1/2
f 100/1/2 102/1/2 104/1/2
f 104/1/2 106/1/2 108/1/2
f 108/1/2 110/1/2 112/1/2
f 112/1/2 114/1/2 116/1/2
f 116/1/2 118/1/2 120/1/2
f 120/1/2 122/1/2 124/1/2
f 124/1/2 126/1/2 128/1/2
f 128/1/2 100/1/2 104/1/2
f 104/1/2 108/1/2 112/1/2
f 112/1/2 116/1/2 120/1/2
f 120/1/2 124/1/2 128/1/2
f 128/1/2 104/1/2 112/1/2
f 89/1/30 121/1/30 120/1/30
f 76/1/31 108/1/31 107/1/31
f 90/1/32 122/1/32 121/1/32
f 77/1/33 109/1/33 108/1/33
f 91/1/1 123/1/1 122/1/1
f 78/1/4 110/1/4 109/1/4
f 65/1/5 97/1/5 128/1/5
f 92/1/6 124/1/6 123/1/6
f 79/1/7 111/1/7 110/1/7
f 66/1/8 98/1/8 97/1/8
f 93/1/9 125/1/9 124/1/9
f 80/1/10 112/1/10 111/1/10
f 67/1/11 99/1/11 98/1/11
f 94/1/12 126/1/12 125/1/12
f 81/1/13 113/1/13 112/1/13
f 68/1/14 100/1/14 99/1/14
f 95/1/15 127/1/15 126/1/15
f 82/1/16 114/1/16 113/1/16
f 69/1/17 101/1/17 100/1/17
f 96/1/18 128/1/18 127/1/18
f 83/1/19 115/1/19 114/1/19
f 70/1/20 102/1/20 101/1/20
f 84/1/21 116/1/21 115/1/21
f 71/1/22 103/1/22 102/1/22
f 85/1/23 117/1/23 116/1/23
f 72/1/24 104/1/24 103/1/24
f 86/1/25 118/1/25 117/1/25
f 73/1/26 105/1/26 104/1/26
f 87/1/27 119/1/27 118/1/27
f 74/1/28 106/1/28 105/1/28
f 88/1/29 120/1/29 119/1/29
