# Blender 4.3.0
# www.blender.org
mtllib doorleft.mtl
o Plane.072
v -0.477584 3.168847 2.060334
v -0.477584 -0.003891 2.060334
v -0.477584 3.168847 -0.009945
v -0.477584 -0.003891 -0.009945
v 0.119376 3.168847 -0.009945
v 0.119376 3.168847 2.060334
v 0.119377 -0.003891 2.060334
v 0.119377 -0.003891 -0.009945
vn -1.0000 -0.0000 -0.0000
vn 1.0000 -0.0000 -0.0000
vn -0.0000 1.0000 -0.0000
vn -0.0000 -0.0000 -1.0000
vn -0.0000 -0.0000 1.0000
vn -0.0000 -1.0000 -0.0000
vt 0.444463 0.207059
vt 0.570827 0.207059
vt 0.570827 0.064023
vt 0.444463 0.064023
vt 0.444368 0.210845
vt 0.444368 0.060741
vt 0.506687 0.060741
vt 0.506687 0.210845
vt 0.000000 1.000000
vt 0.000000 0.000000
vt 1.000000 1.000000
vt 1.000000 0.000000
vt 0.789583 0.222222
s 0
usemtl Material.019
f 1/1/1 3/2/1 4/3/1 2/4/1
f 6/5/2 7/6/2 8/7/2 5/8/2
f 2/13/6 4/13/6 8/13/6 7/13/6
usemtl Material.020
f 3/9/3 1/10/3 6/10/3 5/9/3
f 4/11/4 3/9/4 5/9/4 8/11/4
f 1/10/5 2/12/5 7/12/5 6/10/5
