# Blender 4.3.0
# www.blender.org
mtllib doorright.mtl
o Plane.091
v -0.477587 3.168847 -0.006899
v -0.477586 -0.003891 -0.006899
v -0.477587 3.168847 -2.034674
v -0.477586 -0.003891 -2.034674
v 0.119373 3.168847 -2.034674
v 0.119373 3.168847 -0.006899
v 0.119374 -0.003891 -0.006899
v 0.119374 -0.003891 -2.034674
vn -1.0000 -0.0000 -0.0000
vn 1.0000 -0.0000 -0.0000
vn -0.0000 1.0000 -0.0000
vn -0.0000 -0.0000 -1.0000
vn -0.0000 -0.0000 1.0000
vn -0.0000 -1.0000 -0.0000
vt 0.444463 0.207059
vt 0.570827 0.207059
vt 0.570827 0.064023
vt 0.444463 0.064023
vt 0.508211 0.210998
vt 0.508211 0.060894
vt 0.570584 0.060894
vt 0.570584 0.210998
vt 0.000000 1.000000
vt 0.000000 0.000000
vt 1.000000 1.000000
vt 1.000000 0.000000
vt 0.789583 0.222222
s 0
usemtl Material.019
f 1/1/1 3/2/1 4/3/1 2/4/1
f 6/5/2 7/6/2 8/7/2 5/8/2
f 2/13/6 4/13/6 8/13/6 7/13/6
usemtl Material.020
f 3/9/3 1/10/3 6/10/3 5/9/3
f 4/11/4 3/9/4 5/9/4 8/11/4
f 1/10/5 2/12/5 7/12/5 6/10/5
