# Blender 4.3.0
# www.blender.org
mtllib jumpbong.mtl
o Cube.001
v 0.023688 0.033900 0.005854
v 0.022888 0.037650 0.006662
v 0.021588 0.041106 0.007974
v 0.019839 0.044135 0.009741
v 0.017707 0.046621 0.011893
v 0.015276 0.048468 0.014349
v 0.012637 0.049606 0.017013
v 0.009893 0.049990 0.019784
v 0.007149 0.049606 0.022555
v 0.004511 0.048468 0.025220
v 0.002079 0.046621 0.027676
v -0.000053 0.044135 0.029828
v -0.001802 0.041106 0.031594
v -0.003102 0.037650 0.032907
v -0.003902 0.033900 0.033715
v -0.004172 0.030000 0.033988
v -0.003902 0.026100 0.033715
v -0.003102 0.022351 0.032907
v -0.001802 0.018895 0.031594
v -0.000053 0.015865 0.029828
v 0.002079 0.013379 0.027676
v 0.004511 0.011532 0.025220
v 0.007149 0.010395 0.022555
v 0.009893 0.010011 0.019784
v 0.012637 0.010395 0.017013
v 0.015276 0.011532 0.014349
v 0.017707 0.013379 0.011893
v 0.019839 0.015865 0.009741
v 0.021588 0.018895 0.007974
v 0.022888 0.022351 0.006662
v 0.023688 0.026100 0.005853
v 0.023958 0.030000 0.005581
v 0.599707 0.033900 0.600272
v 0.598907 0.037650 0.601080
v 0.597607 0.041106 0.602393
v 0.595858 0.044135 0.604159
v 0.593726 0.046621 0.606311
v 0.591294 0.048468 0.608767
v 0.588656 0.049606 0.611432
v 0.585912 0.049990 0.614203
v 0.583168 0.049606 0.616974
v 0.580529 0.048468 0.619638
v 0.578097 0.046621 0.622094
v 0.575966 0.044135 0.624246
v 0.574217 0.041106 0.626013
v 0.572917 0.037650 0.627325
v 0.572117 0.033900 0.628133
v 0.571846 0.030000 0.628406
v 0.572117 0.026100 0.628133
v 0.572917 0.022351 0.627325
v 0.574217 0.018895 0.626013
v 0.575966 0.015865 0.624246
v 0.578097 0.013379 0.622094
v 0.580529 0.011532 0.619638
v 0.583168 0.010395 0.616974
v 0.585912 0.010011 0.614203
v 0.588656 0.010395 0.611432
v 0.591294 0.011532 0.608767
v 0.593726 0.013379 0.606311
v 0.595858 0.015865 0.604159
v 0.597607 0.018895 0.602393
v 0.598907 0.022351 0.601080
v 0.599707 0.026100 0.600272
v 0.599977 0.030000 0.599999
vn -0.7106 -0.0000 -0.7036
vn 0.7106 -0.0000 0.7036
vn 0.6334 -0.4713 -0.6138
vn -0.7147 -0.0980 0.6926
vn 0.5552 0.6343 -0.5380
vn 0.6872 -0.2902 -0.6659
vn -0.6872 -0.2902 0.6660
vn 0.4556 0.7729 -0.4415
vn 0.7147 -0.0980 -0.6926
vn -0.6334 -0.4713 0.6138
vn 0.3386 0.8819 -0.3281
vn -0.5552 -0.6343 0.5380
vn 0.2085 0.9569 -0.2020
vn -0.4556 -0.7730 0.4415
vn 0.0704 0.9952 -0.0682
vn -0.3386 -0.8819 0.3281
vn -0.0704 0.9952 0.0682
vn -0.2085 -0.9569 0.2020
vn -0.2085 0.9569 0.2020
vn -0.0704 -0.9952 0.0682
vn -0.3386 0.8819 0.3281
vn 0.0704 -0.9952 -0.0682
vn -0.4556 0.7730 0.4415
vn 0.2085 -0.9569 -0.2021
vn -0.5552 0.6343 0.5380
vn 0.3386 -0.8819 -0.3281
vn -0.6334 0.4713 0.6138
vn 0.7147 0.0980 -0.6926
vn 0.4556 -0.7729 -0.4415
vn -0.6872 0.2902 0.6660
vn 0.6872 0.2902 -0.6660
vn 0.5552 -0.6343 -0.5380
vn -0.7147 0.0980 0.6926
vn 0.6334 0.4713 -0.6138
vt 0.000000 0.000000
s 0
usemtl Pink
f 1/1/1 32/1/1 31/1/1 30/1/1 29/1/1 28/1/1 27/1/1 26/1/1 25/1/1 24/1/1 23/1/1 22/1/1 21/1/1 20/1/1 19/1/1 18/1/1 17/1/1 16/1/1 15/1/1 14/1/1 13/1/1 12/1/1 11/1/1 10/1/1 9/1/1 8/1/1 7/1/1 6/1/1 5/1/1 4/1/1 3/1/1 2/1/1
f 33/1/2 34/1/2 35/1/2 36/1/2 37/1/2 38/1/2 39/1/2 40/1/2 41/1/2 42/1/2 43/1/2 44/1/2 45/1/2 46/1/2 47/1/2 48/1/2 49/1/2 50/1/2 51/1/2 52/1/2 53/1/2 54/1/2 55/1/2 56/1/2 57/1/2 58/1/2 59/1/2 60/1/2 61/1/2 62/1/2 63/1/2 64/1/2
f 29/1/3 30/1/3 62/1/3 61/1/3
f 16/1/4 17/1/4 49/1/4 48/1/4
f 3/1/5 4/1/5 36/1/5 35/1/5
f 30/1/6 31/1/6 63/1/6 62/1/6
f 17/1/7 18/1/7 50/1/7 49/1/7
f 4/1/8 5/1/8 37/1/8 36/1/8
f 31/1/9 32/1/9 64/1/9 63/1/9
f 18/1/10 19/1/10 51/1/10 50/1/10
f 5/1/11 6/1/11 38/1/11 37/1/11
f 19/1/12 20/1/12 52/1/12 51/1/12
f 6/1/13 7/1/13 39/1/13 38/1/13
f 20/1/14 21/1/14 53/1/14 52/1/14
f 7/1/15 8/1/15 40/1/15 39/1/15
f 21/1/16 22/1/16 54/1/16 53/1/16
f 8/1/17 9/1/17 41/1/17 40/1/17
f 22/1/18 23/1/18 55/1/18 54/1/18
f 9/1/19 10/1/19 42/1/19 41/1/19
f 23/1/20 24/1/20 56/1/20 55/1/20
f 10/1/21 11/1/21 43/1/21 42/1/21
f 24/1/22 25/1/22 57/1/22 56/1/22
f 11/1/23 12/1/23 44/1/23 43/1/23
f 25/1/24 26/1/24 58/1/24 57/1/24
f 12/1/25 13/1/25 45/1/25 44/1/25
f 26/1/26 27/1/26 59/1/26 58/1/26
f 13/1/27 14/1/27 46/1/27 45/1/27
f 32/1/28 1/1/28 33/1/28 64/1/28
f 27/1/29 28/1/29 60/1/29 59/1/29
f 14/1/30 15/1/30 47/1/30 46/1/30
f 1/1/31 2/1/31 34/1/31 33/1/31
f 28/1/32 29/1/32 61/1/32 60/1/32
f 15/1/33 16/1/33 48/1/33 47/1/33
f 2/1/34 3/1/34 35/1/34 34/1/34
