# Blender 4.2.2 LTS
# www.blender.org
mtllib leftLeg.mtl
o leftLeg
v -0.104438 0.016058 -0.200217
v -0.180160 0.015564 -0.237327
v -0.179691 0.017466 -0.285041
v -0.077218 0.017466 -0.237327
v -0.255639 0.016058 -0.200217
v -0.282165 0.017466 -0.237327
v -0.179691 0.017466 -0.285041
v -0.282165 0.017466 -0.237327
v -0.282126 0.020934 -0.237321
v -0.178973 0.020934 -0.285041
v -0.077218 0.017466 -0.237327
v -0.075820 0.020934 -0.237321
v -0.075820 0.020934 0.048998
v -0.178973 0.020934 0.096718
v -0.179691 0.017466 0.096669
v -0.077218 0.017466 0.048955
v -0.178973 0.020934 0.096718
v -0.282126 0.020934 0.048998
v -0.282165 0.017466 0.048955
v -0.179691 0.017466 0.096669
v -0.179691 0.017466 0.096669
v -0.282165 0.017466 0.048955
v -0.255639 0.016058 0.011844
v -0.180160 0.015564 0.048955
v -0.077218 0.017466 0.048955
v -0.104438 0.016058 0.011844
v -0.180316 0.014930 -0.094186
v -0.078374 0.015564 -0.094186
v -0.281946 0.015564 -0.094186
v -0.316322 0.017466 -0.094186
v -0.316322 0.017466 -0.094186
v -0.316510 0.020934 -0.094161
v -0.043060 0.017466 -0.094186
v -0.043060 0.017466 -0.094186
v -0.041435 0.020934 -0.094161
v -0.079499 0.182505 0.041418
v -0.060560 0.182317 -0.018248
v -0.060560 0.195345 -0.018668
v -0.079468 0.195627 0.037957
v -0.079499 0.182505 -0.077915
v -0.079468 0.195627 -0.075293
v -0.136193 0.196472 0.056832
v -0.192917 0.197318 0.037957
v -0.193136 0.183632 0.041418
v -0.136318 0.183069 0.061307
v -0.136193 0.196472 0.056832
v -0.136318 0.183069 0.061307
v -0.193136 0.183632 -0.077915
v -0.212075 0.183820 -0.018248
v -0.211825 0.197600 -0.018668
v -0.192917 0.197318 -0.075293
v -0.136318 0.183069 -0.097804
v -0.136193 0.196472 -0.094168
v -0.074960 0.132466 0.050155
v -0.054560 0.132466 -0.034771
v -0.057560 0.144364 -0.029225
v -0.077187 0.144364 0.048532
v -0.074960 0.132466 -0.119696
v -0.077187 0.144364 -0.106983
v -0.078960 0.156567 -0.095433
v -0.059810 0.156544 -0.024454
v -0.078960 0.156567 0.046526
v -0.136411 0.156638 0.070186
v -0.136068 0.144364 0.074451
v -0.136411 0.156638 0.070186
v -0.193863 0.156708 0.046526
v -0.194948 0.144364 0.048532
v -0.136068 0.144364 0.074451
v -0.197362 0.132466 0.050155
v -0.136161 0.132466 0.078463
v -0.136161 0.132466 0.078463
v -0.197363 0.132466 -0.119696
v -0.217763 0.132466 -0.034771
v -0.214575 0.144364 -0.029225
v -0.194949 0.144364 -0.106983
v -0.213013 0.156732 -0.024453
v -0.193863 0.156708 -0.095433
v -0.136161 0.132466 -0.148004
v -0.136068 0.144364 -0.132902
v -0.136411 0.156638 -0.119093
v -0.071476 0.069315 0.050312
v -0.042248 0.069315 -0.080137
v -0.045060 0.087381 -0.065714
v -0.071281 0.087381 0.051168
v -0.071476 0.069315 -0.210585
v -0.071281 0.087381 -0.182596
v -0.071703 0.106323 -0.152849
v -0.048435 0.106323 -0.050552
v -0.071703 0.106323 0.051745
v -0.141505 0.106323 0.085844
v -0.149942 0.087381 0.090128
v -0.141505 0.106323 0.085844
v -0.211307 0.106323 0.051745
v -0.228604 0.087381 0.051168
v -0.149942 0.087381 0.090128
v -0.246845 0.069315 0.050312
v -0.159161 0.069315 0.093795
v -0.159161 0.069315 0.093795
v -0.246846 0.069315 -0.210585
v -0.276074 0.069315 -0.080137
v -0.254824 0.087381 -0.065714
v -0.228604 0.087381 -0.182596
v -0.234575 0.106323 -0.050552
v -0.211307 0.106323 -0.152849
v -0.159161 0.069315 -0.254068
v -0.149942 0.087381 -0.221557
v -0.141505 0.106323 -0.186948
v -0.072718 0.049308 0.049717
v -0.040248 0.049308 -0.090545
v -0.040811 0.057699 -0.087410
v -0.072000 0.057699 0.049906
v -0.072718 0.049308 -0.230806
v -0.072000 0.057699 -0.224726
v -0.165567 0.057699 0.095678
v -0.259134 0.057699 0.049906
v -0.165567 0.057699 0.095678
v -0.267540 0.049308 0.049717
v -0.170129 0.049308 0.096471
v -0.170129 0.049308 0.096471
v -0.267540 0.049308 -0.230806
v -0.300010 0.049308 -0.090545
v -0.290323 0.057699 -0.087410
v -0.259134 0.057699 -0.224726
v -0.170129 0.049308 -0.277560
v -0.165567 0.057699 -0.270498
v -0.040560 0.026264 -0.094087
v -0.074937 0.026264 0.049129
v -0.074937 0.026264 -0.237302
v -0.074265 0.033059 -0.236617
v -0.040186 0.033059 -0.093653
v -0.074265 0.033059 0.049311
v -0.178066 0.026264 -0.285041
v -0.281196 0.026264 -0.237302
v -0.278743 0.033059 -0.236617
v -0.176504 0.033059 -0.284272
v -0.315572 0.026264 -0.094087
v -0.281196 0.026264 0.049129
v -0.278743 0.033059 0.049311
v -0.312823 0.033059 -0.093653
v -0.176504 0.033059 0.096966
v -0.178066 0.026264 0.096867
v -0.176504 0.033059 0.096966
v -0.178066 0.026264 0.096867
v -0.051560 0.120569 -0.041058
v -0.073031 0.120569 0.051316
v -0.073031 0.120569 -0.133433
v -0.137443 0.120569 -0.164225
v -0.201855 0.120569 -0.133433
v -0.223325 0.120569 -0.041058
v -0.201854 0.120569 0.051317
v -0.137443 0.120569 0.082108
v -0.137443 0.120569 0.082108
v -0.040060 0.040917 -0.092549
v -0.073499 0.040917 0.049513
v -0.073500 0.040917 -0.234611
v -0.173817 0.040917 -0.281965
v -0.274134 0.040917 -0.234611
v -0.307573 0.040917 -0.092549
v -0.274134 0.040917 0.049513
v -0.173816 0.040917 0.096867
v -0.173816 0.040917 0.096867
v -0.060560 0.169289 -0.020486
v -0.079530 0.169383 0.044215
v -0.079531 0.169383 -0.085186
v -0.136443 0.169665 -0.106753
v -0.193355 0.169947 -0.085186
v -0.212325 0.170041 -0.020486
v -0.193355 0.169947 0.044215
v -0.136443 0.169665 0.065781
v -0.136443 0.169665 0.065781
vn 0.1283 -0.9860 -0.1063
vn 0.0185 -0.9998 -0.0121
vn -0.0000 -0.9999 -0.0171
vn -0.0060 -0.9895 -0.1445
vn -0.0186 -0.9998 -0.0121
vn -0.1342 -0.9858 -0.1007
vn -0.0058 -0.0156 -0.9999
vn -0.0060 -0.9895 -0.1446
vn -0.1343 -0.9858 -0.1008
vn -0.8182 0.0916 -0.5676
vn 0.7989 -0.2069 -0.5648
vn 0.1285 -0.9860 -0.1063
vn 0.1289 -0.9860 0.1061
vn 0.7981 -0.2189 0.5613
vn -0.0057 -0.0380 0.9993
vn -0.0058 -0.9895 0.1447
vn -0.0061 -0.9895 0.1446
vn -0.0058 -0.0380 0.9993
vn -0.8203 0.0798 0.5663
vn -0.1347 -0.9858 0.1005
vn -0.0000 -0.9999 0.0172
vn -0.0059 -0.9894 0.1448
vn -0.1347 -0.9858 0.1006
vn -0.0186 -0.9998 0.0121
vn 0.0184 -0.9998 0.0121
vn 0.1287 -0.9860 0.1060
vn 0.0211 -0.9998 -0.0000
vn -0.0000 -1.0000 -0.0000
vn -0.0213 -0.9998 -0.0000
vn -0.1778 -0.9841 -0.0001
vn -0.9954 0.0954 -0.0008
vn -0.1778 -0.9841 -0.0002
vn 0.1712 -0.9852 -0.0001
vn 0.9662 -0.2580 -0.0008
vn 0.1712 -0.9852 -0.0000
vn 0.7355 0.1667 0.6567
vn 0.7139 0.1590 0.6820
vn 0.9988 0.0447 0.0193
vn 0.9993 0.0364 -0.0063
vn 0.7263 0.2357 -0.6456
vn 0.7322 0.1283 -0.6689
vn -0.0009 0.2733 0.9619
vn -0.0009 0.2849 0.9586
vn -0.7375 0.1744 0.6525
vn -0.7162 0.1668 0.6777
vn -0.0009 0.2732 0.9619
vn -0.7350 0.1370 -0.6641
vn -0.7273 0.2412 -0.6425
vn -0.9980 0.0608 0.0183
vn -0.9986 0.0529 -0.0060
vn -0.0000 0.3998 -0.9166
vn -0.0017 0.2284 -0.9736
vn 0.7733 0.2197 0.5947
vn 0.7926 0.2039 0.5747
vn 0.9624 0.2716 0.0050
vn 0.9671 0.2544 0.0045
vn 0.6441 0.6158 -0.4538
vn 0.6427 0.5967 -0.4805
vn 0.9846 0.1749 0.0046
vn 0.6573 0.5348 -0.5310
vn 0.7559 0.1845 0.6281
vn -0.0045 0.2638 0.9646
vn 0.0037 0.2703 0.9628
vn -0.0046 0.2638 0.9646
vn -0.7645 0.1566 0.6254
vn -0.7722 0.2072 0.6006
vn 0.0130 0.2614 0.9651
vn -0.7643 0.2952 0.5734
vn -0.6419 0.5940 -0.4849
vn -0.5964 0.6761 -0.4328
vn -0.9259 0.3778 0.0030
vn -0.9716 0.2366 0.0042
vn -0.9901 0.1404 0.0048
vn -0.6730 0.5081 -0.5375
vn 0.0053 0.7880 -0.6157
vn 0.0019 0.7549 -0.6559
vn -0.0020 0.7002 -0.7140
vn 0.8291 -0.0176 0.5588
vn 0.8310 -0.0439 0.5546
vn 0.9873 0.1572 -0.0226
vn 0.9861 0.1661 0.0031
vn 0.6197 0.6360 -0.4599
vn 0.6313 0.6531 -0.4183
vn 0.9833 0.1804 0.0226
vn 0.6594 0.6315 -0.4079
vn 0.8242 0.0379 0.5651
vn 0.0374 0.1964 0.9798
vn 0.0118 0.1933 0.9811
vn 0.0117 0.1934 0.9811
vn -0.6750 0.5450 0.4973
vn -0.6528 0.6098 0.4493
vn -0.0194 0.1994 0.9797
vn -0.6438 0.6443 0.4128
vn -0.4220 0.8602 -0.2864
vn -0.4198 0.8555 -0.3029
vn -0.6370 0.7708 -0.0115
vn -0.6614 0.7500 0.0005
vn -0.7192 0.6948 0.0104
vn -0.4546 0.8383 -0.3010
vn -0.0031 0.8491 -0.5282
vn 0.0036 0.8739 -0.4861
vn 0.0095 0.8659 -0.5001
vn 0.8267 -0.0676 0.5586
vn 0.8187 -0.0873 0.5676
vn 0.9998 0.0154 -0.0081
vn 0.9954 0.0928 -0.0228
vn 0.7823 0.2627 -0.5647
vn 0.6977 0.4868 -0.5256
vn -0.0203 0.1785 0.9837
vn -0.6387 0.6472 0.4161
vn -0.0101 0.1299 0.9915
vn -0.6688 0.5857 0.4579
vn -0.0101 0.1298 0.9915
vn -0.4716 0.8117 -0.3445
vn -0.5673 0.7184 -0.4025
vn -0.7131 0.7010 -0.0030
vn -0.6467 0.7627 -0.0104
vn -0.0028 0.5801 -0.8146
vn -0.0025 0.7541 -0.6568
vn 0.8085 -0.1184 0.5764
vn 0.9937 -0.1120 -0.0044
vn 0.8051 -0.0681 -0.5893
vn 0.9984 -0.0554 -0.0066
vn 0.8020 0.0308 -0.5965
vn 0.8098 -0.0948 0.5790
vn -0.0141 0.0812 -0.9966
vn -0.7916 0.2491 -0.5580
vn -0.0178 0.2382 -0.9711
vn -0.7341 0.4364 -0.5202
vn -0.9606 0.2779 -0.0039
vn -0.8054 0.2121 0.5535
vn -0.8889 0.4580 -0.0046
vn -0.7707 0.3588 0.5266
vn -0.0192 0.0413 0.9990
vn -0.0141 -0.0012 0.9999
vn -0.0141 -0.0011 0.9999
vn -0.0192 0.0414 0.9990
vn 0.8117 0.1322 0.5689
vn 0.9723 0.2331 0.0162
vn 0.6592 0.6183 -0.4280
vn 0.0093 0.8291 -0.5590
vn -0.5252 0.7705 -0.3613
vn -0.8297 0.5581 0.0089
vn -0.7249 0.4257 0.5415
vn 0.0290 0.2316 0.9724
vn 0.8137 -0.0919 0.5740
vn 0.9997 -0.0234 -0.0075
vn 0.7981 0.1340 -0.5875
vn -0.0100 0.4109 -0.9116
vn -0.6529 0.5974 -0.4656
vn -0.8001 0.5998 -0.0039
vn -0.7211 0.4848 0.4950
vn -0.0142 0.0828 0.9965
vn 0.7374 0.1470 0.6592
vn 0.9964 0.0842 0.0113
vn 0.6930 0.4132 -0.5908
vn -0.0008 0.6041 -0.7969
vn -0.6988 0.4047 -0.5899
vn -0.9961 0.0872 0.0108
vn -0.7425 0.1461 0.6537
vn -0.0031 0.2598 0.9657
vn -0.0034 0.2599 0.9656
vt 0.177257 0.988896
vt 0.187536 0.982077
vt 0.178625 0.961252
vt 0.165862 0.960742
vt 0.189534 0.941480
vt 0.179965 0.933859
vt 0.046462 0.988743
vt 0.046008 0.989566
vt 0.073689 0.999972
vt 0.073783 0.999054
vt 0.030068 0.965118
vt 0.029303 0.965742
vt 0.010246 0.892350
vt 0.011233 0.892246
vt 0.001607 0.863223
vt 0.000671 0.863373
vt 0.164651 0.952966
vt 0.164150 0.952145
vt 0.143001 0.972669
vt 0.143485 0.973466
vt 0.255103 0.965063
vt 0.267854 0.965825
vt 0.256458 0.937671
vt 0.246188 0.944303
vt 0.244191 0.984901
vt 0.253750 0.992708
vt 0.215520 0.990484
vt 0.216866 0.963116
vt 0.218208 0.935832
vt 0.218663 0.926587
vt 0.109705 0.989240
vt 0.109966 0.990138
vt 0.215052 0.999979
vt 0.021375 0.929297
vt 0.020397 0.929613
vt 0.056324 0.880558
vt 0.052723 0.880927
vt 0.058217 0.897513
vt 0.061515 0.896344
vt 0.064745 0.914177
vt 0.067428 0.911703
vt 0.139766 0.913587
vt 0.137301 0.910747
vt 0.124704 0.920048
vt 0.126974 0.923092
vt 0.053080 0.864363
vt 0.049290 0.864720
vt 0.095021 0.928550
vt 0.094514 0.932309
vt 0.111454 0.929181
vt 0.110298 0.925606
vt 0.077750 0.926687
vt 0.079485 0.923431
vt 0.042632 0.882796
vt 0.039586 0.883697
vt 0.046965 0.906269
vt 0.049628 0.903834
vt 0.054569 0.929157
vt 0.057222 0.925194
vt 0.052335 0.901521
vt 0.059795 0.921334
vt 0.045803 0.881999
vt 0.041761 0.865397
vt 0.038223 0.865788
vt 0.147018 0.921311
vt 0.144629 0.918984
vt 0.131228 0.929222
vt 0.133097 0.932134
vt 0.149297 0.923578
vt 0.134726 0.935102
vt 0.034769 0.866094
vt 0.089017 0.944853
vt 0.086766 0.949268
vt 0.111495 0.944111
vt 0.111887 0.940389
vt 0.112075 0.936728
vt 0.091194 0.940612
vt 0.067904 0.943336
vt 0.070616 0.938929
vt 0.073255 0.934698
vt 0.028305 0.887305
vt 0.023758 0.888783
vt 0.033262 0.922233
vt 0.037193 0.917416
vt 0.040739 0.954381
vt 0.044675 0.946927
vt 0.041207 0.912286
vt 0.048774 0.938834
vt 0.033027 0.885760
vt 0.027048 0.865834
vt 0.021272 0.864865
vt 0.155732 0.934313
vt 0.153400 0.929371
vt 0.137246 0.942908
vt 0.138280 0.949820
vt 0.157954 0.939251
vt 0.139192 0.956713
vt 0.015728 0.863831
vt 0.078564 0.970980
vt 0.075428 0.980759
vt 0.107640 0.971102
vt 0.108701 0.962456
vt 0.110095 0.953784
vt 0.082043 0.960790
vt 0.053335 0.973448
vt 0.057671 0.964330
vt 0.062149 0.954583
vt 0.020790 0.889671
vt 0.018617 0.890259
vt 0.028559 0.926207
vt 0.030593 0.924833
vt 0.036414 0.960379
vt 0.038225 0.958331
vt 0.012155 0.863150
vt 0.159334 0.942558
vt 0.139798 0.961231
vt 0.160285 0.944971
vt 0.140296 0.964382
vt 0.009595 0.862753
vt 0.074082 0.986567
vt 0.073844 0.990134
vt 0.107837 0.980209
vt 0.107491 0.976580
vt 0.050093 0.981342
vt 0.051185 0.978454
vt 0.012637 0.891905
vt 0.022761 0.928844
vt 0.031293 0.964364
vt 0.024496 0.928200
vt 0.032840 0.963369
vt 0.014400 0.891413
vt 0.047198 0.987513
vt 0.073813 0.997610
vt 0.048096 0.985879
vt 0.073804 0.995664
vt 0.109300 0.987833
vt 0.142351 0.971359
vt 0.108820 0.985892
vt 0.141631 0.969540
vt 0.004889 0.862678
vt 0.003031 0.862938
vt 0.163343 0.950911
vt 0.162357 0.949277
vt 0.036580 0.884624
vt 0.044299 0.908822
vt 0.051893 0.933279
vt 0.065270 0.948053
vt 0.084609 0.954069
vt 0.110988 0.948140
vt 0.136103 0.938349
vt 0.031291 0.866188
vt 0.151356 0.926031
vt 0.016440 0.890851
vt 0.026477 0.927324
vt 0.034584 0.962044
vt 0.049064 0.983809
vt 0.073785 0.993167
vt 0.108307 0.983334
vt 0.140928 0.967183
vt 0.007124 0.862606
vt 0.161317 0.947253
vt 0.049192 0.881389
vt 0.055171 0.899326
vt 0.062257 0.917508
vt 0.075673 0.930498
vt 0.093147 0.936363
vt 0.111999 0.932946
vt 0.129165 0.926168
vt 0.045483 0.865054
vt 0.142208 0.916375
s 1
usemtl lambert1
f 4/1/1 1/2/2 2/3/3
f 2/3/3 3/4/4 4/1/1
f 3/4/4 2/3/3 5/5/5
f 5/5/5 6/6/6 3/4/4
f 10/7/7 7/8/8 8/9/9
f 8/9/9 9/10/10 10/7/7
f 12/11/11 11/12/12 7/8/8
f 7/8/8 10/7/7 12/11/11
f 16/13/13 13/14/14 14/15/15
f 14/15/15 15/16/16 16/13/13
f 20/17/17 17/18/18 18/19/19
f 18/19/19 19/20/20 20/17/17
f 24/21/21 21/22/22 22/23/23
f 22/23/23 23/24/24 24/21/21
f 26/25/25 25/26/26 21/22/22
f 21/22/22 24/21/21 26/25/25
f 28/27/27 26/25/25 24/21/21
f 24/21/21 27/28/28 28/27/27
f 27/28/28 24/21/21 23/24/24
f 23/24/24 29/29/29 27/28/28
f 2/3/3 27/28/28 29/29/29
f 29/29/29 5/5/5 2/3/3
f 1/2/2 28/27/27 27/28/28
f 27/28/28 2/3/3 1/2/2
f 6/6/6 5/5/5 29/29/29
f 29/29/29 30/30/30 6/6/6
f 30/30/30 29/29/29 23/24/24
f 23/24/24 22/23/23 30/30/30
f 32/31/31 31/32/32 19/20/20
f 19/20/20 18/19/19 32/31/31
f 9/10/10 8/9/9 31/32/32
f 31/32/32 32/31/31 9/10/10
f 25/26/26 26/25/25 28/27/27
f 28/27/27 33/33/33 25/26/26
f 33/33/33 28/27/27 1/2/2
f 1/2/2 4/1/1 33/33/33
f 35/34/34 34/35/35 11/12/12
f 11/12/12 12/11/11 35/34/34
f 13/14/14 16/13/13 34/35/35
f 34/35/35 35/34/34 13/14/14
f 39/36/36 36/37/37 37/38/38
f 37/38/38 38/39/39 39/36/36
f 38/39/39 37/38/38 40/40/40
f 40/40/40 41/41/41 38/39/39
f 45/42/42 42/43/43 43/44/44
f 43/44/44 44/45/45 45/42/42
f 36/37/37 39/36/36 46/46/43
f 46/46/43 47/47/46 36/37/37
f 51/48/47 48/49/48 49/50/49
f 49/50/49 50/51/50 51/48/47
f 50/51/50 49/50/49 44/45/45
f 44/45/45 43/44/44 50/51/50
f 41/41/41 40/40/40 52/52/51
f 52/52/51 53/53/52 41/41/41
f 53/53/52 52/52/51 48/49/48
f 48/49/48 51/48/47 53/53/52
f 57/54/53 54/55/54 55/56/55
f 55/56/55 56/57/56 57/54/53
f 56/57/56 55/56/55 58/58/57
f 58/58/57 59/59/58 56/57/56
f 61/60/59 56/57/56 59/59/58
f 59/59/58 60/61/60 61/60/59
f 62/62/61 57/54/53 56/57/56
f 56/57/56 61/60/59 62/62/61
f 57/54/53 62/62/61 63/63/62
f 63/63/62 64/64/63 57/54/53
f 68/65/63 65/66/64 66/67/65
f 66/67/65 67/68/66 68/65/63
f 70/69/67 68/65/63 67/68/66
f 67/68/66 69/70/68 70/69/67
f 54/55/54 57/54/53 64/64/63
f 64/64/63 71/71/67 54/55/54
f 75/72/69 72/73/70 73/74/71
f 73/74/71 74/75/72 75/72/69
f 74/75/72 73/74/71 69/70/68
f 69/70/68 67/68/66 74/75/72
f 76/76/73 74/75/72 67/68/66
f 67/68/66 66/67/65 76/76/73
f 77/77/74 75/72/69 74/75/72
f 74/75/72 76/76/73 77/77/74
f 59/59/58 58/58/57 78/78/75
f 78/78/75 79/79/76 59/59/58
f 79/79/76 78/78/75 72/73/70
f 72/73/70 75/72/69 79/79/76
f 80/80/77 79/79/76 75/72/69
f 75/72/69 77/77/74 80/80/77
f 60/61/60 59/59/58 79/79/76
f 79/79/76 80/80/77 60/61/60
f 84/81/78 81/82/79 82/83/80
f 82/83/80 83/84/81 84/81/78
f 83/84/81 82/83/80 85/85/82
f 85/85/82 86/86/83 83/84/81
f 88/87/84 83/84/81 86/86/83
f 86/86/83 87/88/85 88/87/84
f 89/89/86 84/81/78 83/84/81
f 83/84/81 88/87/84 89/89/86
f 84/81/78 89/89/86 90/90/87
f 90/90/87 91/91/88 84/81/78
f 95/92/89 92/93/87 93/94/90
f 93/94/90 94/95/91 95/92/89
f 97/96/92 95/92/89 94/95/91
f 94/95/91 96/97/93 97/96/92
f 81/82/79 84/81/78 91/91/88
f 91/91/88 98/98/92 81/82/79
f 102/99/94 99/100/95 100/101/96
f 100/101/96 101/102/97 102/99/94
f 101/102/97 100/101/96 96/97/93
f 96/97/93 94/95/91 101/102/97
f 103/103/98 101/102/97 94/95/91
f 94/95/91 93/94/90 103/103/98
f 104/104/99 102/99/94 101/102/97
f 101/102/97 103/103/98 104/104/99
f 86/86/83 85/85/82 105/105/100
f 105/105/100 106/106/101 86/86/83
f 106/106/101 105/105/100 99/100/95
f 99/100/95 102/99/94 106/106/101
f 107/107/102 106/106/101 102/99/94
f 102/99/94 104/104/99 107/107/102
f 87/88/85 86/86/83 106/106/101
f 106/106/101 107/107/102 87/88/85
f 111/108/103 108/109/104 109/110/105
f 109/110/105 110/111/106 111/108/103
f 110/111/106 109/110/105 112/112/107
f 112/112/107 113/113/108 110/111/106
f 82/83/80 110/111/106 113/113/108
f 113/113/108 85/85/82 82/83/80
f 81/82/79 111/108/103 110/111/106
f 110/111/106 82/83/80 81/82/79
f 111/108/103 81/82/79 98/98/92
f 98/98/92 114/114/109 111/108/103
f 116/115/109 97/96/92 96/97/93
f 96/97/93 115/116/110 116/115/109
f 118/117/111 116/115/109 115/116/110
f 115/116/110 117/118/112 118/117/111
f 108/109/104 111/108/103 114/114/109
f 114/114/109 119/119/113 108/109/104
f 123/120/114 120/121/115 121/122/116
f 121/122/116 122/123/117 123/120/114
f 122/123/117 121/122/116 117/118/112
f 117/118/112 115/116/110 122/123/117
f 100/101/96 122/123/117 115/116/110
f 115/116/110 96/97/93 100/101/96
f 99/100/95 123/120/114 122/123/117
f 122/123/117 100/101/96 99/100/95
f 113/113/108 112/112/107 124/124/118
f 124/124/118 125/125/119 113/113/108
f 125/125/119 124/124/118 120/121/115
f 120/121/115 123/120/114 125/125/119
f 105/105/100 125/125/119 123/120/114
f 123/120/114 99/100/95 105/105/100
f 85/85/82 113/113/108 125/125/119
f 125/125/119 105/105/100 85/85/82
f 127/126/120 13/14/14 35/34/34
f 35/34/34 126/127/121 127/126/120
f 126/127/121 35/34/34 12/11/11
f 12/11/11 128/128/122 126/127/121
f 130/129/123 126/127/121 128/128/122
f 128/128/122 129/130/124 130/129/123
f 131/131/125 127/126/120 126/127/121
f 126/127/121 130/129/123 131/131/125
f 128/128/122 12/11/11 10/7/7
f 10/7/7 132/132/126 128/128/122
f 132/132/126 10/7/7 9/10/10
f 9/10/10 133/133/127 132/132/126
f 135/134/128 132/132/126 133/133/127
f 133/133/127 134/135/129 135/134/128
f 129/130/124 128/128/122 132/132/126
f 132/132/126 135/134/128 129/130/124
f 133/133/127 9/10/10 32/31/31
f 32/31/31 136/136/130 133/133/127
f 136/136/130 32/31/31 18/19/19
f 18/19/19 137/137/131 136/136/130
f 139/138/132 136/136/130 137/137/131
f 137/137/131 138/139/133 139/138/132
f 134/135/129 133/133/127 136/136/130
f 136/136/130 139/138/132 134/135/129
f 127/126/120 131/131/125 140/140/134
f 140/140/134 141/141/135 127/126/120
f 143/142/136 142/143/137 138/139/133
f 138/139/133 137/137/131 143/142/136
f 17/18/18 143/142/136 137/137/131
f 137/137/131 18/19/19 17/18/18
f 13/14/14 127/126/120 141/141/135
f 141/141/135 14/15/15 13/14/14
f 145/144/138 89/89/86 88/87/84
f 88/87/84 144/145/139 145/144/138
f 144/145/139 88/87/84 87/88/85
f 87/88/85 146/146/140 144/145/139
f 55/56/55 144/145/139 146/146/140
f 146/146/140 58/58/57 55/56/55
f 54/55/54 145/144/138 144/145/139
f 144/145/139 55/56/55 54/55/54
f 146/146/140 87/88/85 107/107/102
f 107/107/102 147/147/141 146/146/140
f 147/147/141 107/107/102 104/104/99
f 104/104/99 148/148/142 147/147/141
f 78/78/75 147/147/141 148/148/142
f 148/148/142 72/73/70 78/78/75
f 58/58/57 146/146/140 147/147/141
f 147/147/141 78/78/75 58/58/57
f 148/148/142 104/104/99 103/103/98
f 103/103/98 149/149/143 148/148/142
f 149/149/143 103/103/98 93/94/90
f 93/94/90 150/150/144 149/149/143
f 73/74/71 149/149/143 150/150/144
f 150/150/144 69/70/68 73/74/71
f 72/73/70 148/148/142 149/149/143
f 149/149/143 73/74/71 72/73/70
f 145/144/138 54/55/54 71/71/67
f 71/71/67 151/151/145 145/144/138
f 152/152/145 70/69/67 69/70/68
f 69/70/68 150/150/144 152/152/145
f 92/93/87 152/152/145 150/150/144
f 150/150/144 93/94/90 92/93/87
f 89/89/86 145/144/138 151/151/145
f 151/151/145 90/90/87 89/89/86
f 154/153/146 131/131/125 130/129/123
f 130/129/123 153/154/147 154/153/146
f 153/154/147 130/129/123 129/130/124
f 129/130/124 155/155/148 153/154/147
f 109/110/105 153/154/147 155/155/148
f 155/155/148 112/112/107 109/110/105
f 108/109/104 154/153/146 153/154/147
f 153/154/147 109/110/105 108/109/104
f 155/155/148 129/130/124 135/134/128
f 135/134/128 156/156/149 155/155/148
f 156/156/149 135/134/128 134/135/129
f 134/135/129 157/157/150 156/156/149
f 124/124/118 156/156/149 157/157/150
f 157/157/150 120/121/115 124/124/118
f 112/112/107 155/155/148 156/156/149
f 156/156/149 124/124/118 112/112/107
f 157/157/150 134/135/129 139/138/132
f 139/138/132 158/158/151 157/157/150
f 158/158/151 139/138/132 138/139/133
f 138/139/133 159/159/152 158/158/151
f 121/122/116 158/158/151 159/159/152
f 159/159/152 117/118/112 121/122/116
f 120/121/115 157/157/150 158/158/151
f 158/158/151 121/122/116 120/121/115
f 154/153/146 108/109/104 119/119/113
f 119/119/113 160/160/153 154/153/146
f 161/161/153 118/117/111 117/118/112
f 117/118/112 159/159/152 161/161/153
f 142/143/137 161/161/153 159/159/152
f 159/159/152 138/139/133 142/143/137
f 131/131/125 154/153/146 160/160/153
f 160/160/153 140/140/134 131/131/125
f 163/162/154 62/62/61 61/60/59
f 61/60/59 162/163/155 163/162/154
f 162/163/155 61/60/59 60/61/60
f 60/61/60 164/164/156 162/163/155
f 37/38/38 162/163/155 164/164/156
f 164/164/156 40/40/40 37/38/38
f 36/37/37 163/162/154 162/163/155
f 162/163/155 37/38/38 36/37/37
f 164/164/156 60/61/60 80/80/77
f 80/80/77 165/165/157 164/164/156
f 165/165/157 80/80/77 77/77/74
f 77/77/74 166/166/158 165/165/157
f 52/52/51 165/165/157 166/166/158
f 166/166/158 48/49/48 52/52/51
f 40/40/40 164/164/156 165/165/157
f 165/165/157 52/52/51 40/40/40
f 166/166/158 77/77/74 76/76/73
f 76/76/73 167/167/159 166/166/158
f 167/167/159 76/76/73 66/67/65
f 66/67/65 168/168/160 167/167/159
f 49/50/49 167/167/159 168/168/160
f 168/168/160 44/45/45 49/50/49
f 48/49/48 166/166/158 167/167/159
f 167/167/159 49/50/49 48/49/48
f 163/162/154 36/37/37 47/47/46
f 47/47/46 169/169/161 163/162/154
f 170/170/162 45/42/42 44/45/45
f 44/45/45 168/168/160 170/170/162
f 65/66/64 170/170/162 168/168/160
f 168/168/160 66/67/65 65/66/64
f 62/62/61 163/162/154 169/169/161
f 169/169/161 63/63/62 62/62/61
