# Blender 4.2.2 LTS
# www.blender.org
mtllib face.mtl
o face
v 0.223616 0.984107 -0.318011
v 0.178130 0.964413 -0.363704
v 0.190645 1.027877 -0.370983
v 0.243309 1.040392 -0.330358
v 0.127435 0.947213 -0.400403
v 0.133899 1.016609 -0.404191
v 0.139992 1.091870 -0.407891
v 0.201676 1.098022 -0.375734
v 0.260036 1.104486 -0.336851
v 0.066322 0.935000 -0.419116
v 0.068990 1.007834 -0.422566
v 0.000000 0.930141 -0.423976
v 0.000000 1.004070 -0.428046
v 0.000000 1.083732 -0.432590
v 0.071659 1.086341 -0.426599
v 0.074327 1.176194 -0.431796
v 0.145344 1.178862 -0.411414
v 0.000000 1.174860 -0.438085
v 0.000000 1.266271 -0.442282
v 0.075661 1.266272 -0.435897
v 0.148290 1.266272 -0.413323
v 0.209741 1.181530 -0.375426
v 0.270829 1.184198 -0.331635
v 0.214855 1.266272 -0.371139
v 0.278388 1.266272 -0.319150
v -0.066322 0.935000 -0.419116
v -0.068990 1.007834 -0.422566
v -0.127435 0.947213 -0.400403
v -0.133899 1.016609 -0.404191
v -0.139992 1.091870 -0.407891
v -0.071659 1.086341 -0.426599
v -0.178130 0.964413 -0.363704
v -0.190645 1.027877 -0.370983
v -0.223616 0.984107 -0.318011
v -0.243309 1.040392 -0.330358
v -0.260036 1.104486 -0.336851
v -0.201676 1.098022 -0.375734
v -0.209741 1.181530 -0.375426
v -0.145344 1.178862 -0.411414
v -0.270829 1.184198 -0.331635
v -0.278388 1.266272 -0.319150
v -0.214855 1.266272 -0.371139
v -0.148290 1.266271 -0.413323
v -0.074327 1.176194 -0.431796
v -0.075661 1.266272 -0.435897
v -0.074327 1.345453 -0.436645
v 0.000000 1.346787 -0.442934
v -0.147167 1.342784 -0.412182
v -0.142727 1.411807 -0.406632
v -0.071659 1.417336 -0.430650
v 0.000000 1.419945 -0.436641
v -0.217033 1.340116 -0.363950
v -0.285413 1.337448 -0.303833
v -0.281912 1.399191 -0.298423
v -0.212614 1.405655 -0.358545
v -0.197937 1.465479 -0.359612
v -0.135722 1.476748 -0.395315
v -0.257893 1.452964 -0.315660
v -0.223616 1.502753 -0.344221
v -0.178130 1.522446 -0.363914
v -0.127435 1.539646 -0.381114
v -0.068990 1.485522 -0.414522
v 0.000000 1.489286 -0.420001
v -0.066322 1.551859 -0.393327
v 0.000000 1.556719 -0.398187
v 0.217033 1.340116 -0.363950
v 0.285413 1.337448 -0.303833
v 0.147167 1.342784 -0.412182
v 0.142727 1.411807 -0.406632
v 0.212614 1.405655 -0.358545
v 0.281912 1.399191 -0.298423
v 0.074327 1.345453 -0.436645
v 0.071659 1.417336 -0.430650
v 0.068990 1.485522 -0.414522
v 0.135722 1.476748 -0.395315
v 0.066322 1.551859 -0.393327
v 0.127435 1.539646 -0.381114
v 0.197937 1.465479 -0.359612
v 0.257893 1.452964 -0.315660
v 0.178130 1.522446 -0.363914
v 0.223616 1.502753 -0.344221
vn 0.6288 -0.2279 -0.7434
vn 0.6839 -0.2934 -0.6680
vn 0.6147 -0.2043 -0.7618
vn 0.5841 -0.1838 -0.7906
vn 0.4028 -0.0998 -0.9098
vn 0.4049 -0.0969 -0.9092
vn 0.5329 -0.0935 -0.8410
vn 0.3780 -0.0711 -0.9231
vn 0.5804 -0.0929 -0.8090
vn 0.1720 -0.0592 -0.9833
vn 0.1801 -0.0599 -0.9818
vn 0.0001 -0.0527 -0.9986
vn 0.0001 -0.0542 -0.9985
vn 0.1775 -0.0600 -0.9823
vn 0.0004 -0.0582 -0.9983
vn 0.3894 -0.0414 -0.9201
vn 0.1822 -0.0515 -0.9819
vn -0.0001 -0.0532 -0.9986
vn 0.1916 -0.0229 -0.9812
vn -0.0000 -0.0282 -0.9996
vn 0.4198 -0.0014 -0.9076
vn 0.5934 0.0038 -0.8049
vn 0.5439 -0.0171 -0.8390
vn 0.5813 0.0348 -0.8129
vn 0.6298 0.0573 -0.7746
vn -0.1720 -0.0592 -0.9833
vn -0.1802 -0.0600 -0.9818
vn -0.4028 -0.0998 -0.9098
vn -0.4049 -0.0969 -0.9092
vn -0.1775 -0.0601 -0.9823
vn -0.3780 -0.0711 -0.9231
vn -0.6147 -0.2043 -0.7618
vn -0.5841 -0.1838 -0.7906
vn -0.6838 -0.2934 -0.6681
vn -0.6288 -0.2279 -0.7434
vn -0.5329 -0.0935 -0.8410
vn -0.5804 -0.0929 -0.8090
vn -0.3894 -0.0414 -0.9202
vn -0.5439 -0.0171 -0.8390
vn -0.5934 0.0038 -0.8049
vn -0.5813 0.0348 -0.8129
vn -0.6298 0.0573 -0.7746
vn -0.4198 -0.0014 -0.9076
vn -0.1821 -0.0516 -0.9819
vn -0.1915 -0.0229 -0.9812
vn -0.0000 0.0367 -0.9993
vn -0.2013 0.0425 -0.9786
vn -0.4457 0.0608 -0.8931
vn -0.2030 0.1550 -0.9668
vn -0.4433 0.1406 -0.8853
vn -0.0000 0.1588 -0.9873
vn -0.6093 0.0815 -0.7888
vn -0.6525 0.0908 -0.7523
vn -0.6051 0.1123 -0.7882
vn -0.6500 0.1002 -0.7533
vn -0.3956 0.2081 -0.8945
vn -0.5451 0.1117 -0.8309
vn -0.6157 0.0771 -0.7842
vn -0.4697 0.1378 -0.8720
vn -0.5163 -0.0021 -0.8564
vn -0.3380 0.2425 -0.9094
vn -0.0000 0.2706 -0.9627
vn -0.1896 0.2577 -0.9474
vn -0.1719 0.2941 -0.9402
vn -0.0000 0.3078 -0.9515
vn 0.6525 0.0909 -0.7523
vn 0.6092 0.0815 -0.7888
vn 0.4457 0.0606 -0.8931
vn 0.6051 0.1123 -0.7882
vn 0.4434 0.1402 -0.8853
vn 0.6500 0.1002 -0.7533
vn 0.2014 0.0424 -0.9786
vn 0.2030 0.1550 -0.9668
vn 0.3956 0.2082 -0.8945
vn 0.1896 0.2576 -0.9475
vn 0.1719 0.2941 -0.9402
vn 0.3380 0.2425 -0.9094
vn 0.6157 0.0771 -0.7842
vn 0.5451 0.1117 -0.8309
vn 0.4697 0.1379 -0.8720
vn 0.5163 -0.0020 -0.8564
vt 0.016596 0.553619
vt 0.019715 0.531841
vt 0.043438 0.526079
vt 0.040716 0.549379
vt 0.066365 0.520262
vt 0.064606 0.545291
vt 0.037979 0.574926
vt 0.063074 0.572378
vt 0.012707 0.577556
vt 0.089669 0.515688
vt 0.089117 0.541856
vt 0.113911 0.513639
vt 0.114283 0.540169
vt 0.088670 0.569987
vt 0.114684 0.568674
vt 0.061913 0.603614
vt 0.088391 0.602102
vt 0.115140 0.601169
vt 0.088633 0.634162
vt 0.115595 0.633607
vt 0.061643 0.634908
vt 0.008461 0.606800
vt 0.035458 0.605156
vt 0.033577 0.635892
vt 0.004206 0.637187
vt 0.138200 0.515007
vt 0.139487 0.541149
vt 0.161624 0.518925
vt 0.164085 0.543895
vt 0.140724 0.569256
vt 0.166376 0.570927
vt 0.184705 0.524095
vt 0.188080 0.547310
vt 0.208581 0.529190
vt 0.212310 0.550872
vt 0.191533 0.572770
vt 0.216870 0.574690
vt 0.168414 0.602119
vt 0.194902 0.602917
vt 0.221934 0.603802
vt 0.197645 0.633588
vt 0.227042 0.634059
vt 0.169563 0.633393
vt 0.141905 0.601351
vt 0.142562 0.633405
vt 0.115997 0.662190
vt 0.142268 0.661480
vt 0.169402 0.660698
vt 0.141742 0.687043
vt 0.168318 0.685476
vt 0.116362 0.688199
vt 0.199465 0.660449
vt 0.231991 0.660467
vt 0.198573 0.684379
vt 0.231538 0.683181
vt 0.166817 0.709198
vt 0.192949 0.706128
vt 0.220013 0.702427
vt 0.184662 0.726613
vt 0.203029 0.720004
vt 0.164771 0.732555
vt 0.116716 0.713442
vt 0.141672 0.711936
vt 0.141661 0.736868
vt 0.117070 0.738665
vt 0.000000 0.663724
vt 0.032512 0.662793
vt 0.062570 0.662198
vt 0.034076 0.686688
vt 0.064349 0.686936
vt 0.001091 0.686417
vt 0.089716 0.662218
vt 0.090959 0.687755
vt 0.066516 0.710606
vt 0.091728 0.712637
vt 0.092439 0.737559
vt 0.069217 0.733897
vt 0.013151 0.705331
vt 0.040308 0.708272
vt 0.049167 0.728515
vt 0.030622 0.722425
s 1
usemtl BodyMat
f 4/1/1 1/2/2 2/3/3
f 2/3/3 3/4/4 4/1/1
f 3/4/4 2/3/3 5/5/5
f 5/5/5 6/6/6 3/4/4
f 8/7/7 3/4/4 6/6/6
f 6/6/6 7/8/8 8/7/7
f 9/9/9 4/1/1 3/4/4
f 3/4/4 8/7/7 9/9/9
f 6/6/6 5/5/5 10/10/10
f 10/10/10 11/11/11 6/6/6
f 11/11/11 10/10/10 12/12/12
f 12/12/12 13/13/13 11/11/11
f 15/14/14 11/11/11 13/13/13
f 13/13/13 14/15/15 15/14/14
f 7/8/8 6/6/6 11/11/11
f 11/11/11 15/14/14 7/8/8
f 17/16/16 7/8/8 15/14/14
f 15/14/14 16/17/17 17/16/16
f 16/17/17 15/14/14 14/15/15
f 14/15/15 18/18/18 16/17/17
f 20/19/19 16/17/17 18/18/18
f 18/18/18 19/20/20 20/19/19
f 21/21/21 17/16/16 16/17/17
f 16/17/17 20/19/19 21/21/21
f 23/22/22 9/9/9 8/7/7
f 8/7/7 22/23/23 23/22/22
f 22/23/23 8/7/7 7/8/8
f 7/8/8 17/16/16 22/23/23
f 24/24/24 22/23/23 17/16/16
f 17/16/16 21/21/21 24/24/24
f 25/25/25 23/22/22 22/23/23
f 22/23/23 24/24/24 25/25/25
f 13/13/13 12/12/12 26/26/26
f 26/26/26 27/27/27 13/13/13
f 27/27/27 26/26/26 28/28/28
f 28/28/28 29/29/29 27/27/27
f 31/30/30 27/27/27 29/29/29
f 29/29/29 30/31/31 31/30/30
f 14/15/15 13/13/13 27/27/27
f 27/27/27 31/30/30 14/15/15
f 29/29/29 28/28/28 32/32/32
f 32/32/32 33/33/33 29/29/29
f 33/33/33 32/32/32 34/34/34
f 34/34/34 35/35/35 33/33/33
f 37/36/36 33/33/33 35/35/35
f 35/35/35 36/37/37 37/36/36
f 30/31/31 29/29/29 33/33/33
f 33/33/33 37/36/36 30/31/31
f 39/38/38 30/31/31 37/36/36
f 37/36/36 38/39/39 39/38/38
f 38/39/39 37/36/36 36/37/37
f 36/37/37 40/40/40 38/39/39
f 42/41/41 38/39/39 40/40/40
f 40/40/40 41/42/42 42/41/41
f 43/43/43 39/38/38 38/39/39
f 38/39/39 42/41/41 43/43/43
f 18/18/18 14/15/15 31/30/30
f 31/30/30 44/44/44 18/18/18
f 44/44/44 31/30/30 30/31/31
f 30/31/31 39/38/38 44/44/44
f 45/45/45 44/44/44 39/38/38
f 39/38/38 43/43/43 45/45/45
f 19/20/20 18/18/18 44/44/44
f 44/44/44 45/45/45 19/20/20
f 47/46/46 19/20/20 45/45/45
f 45/45/45 46/47/47 47/46/46
f 46/47/47 45/45/45 43/43/43
f 43/43/43 48/48/48 46/47/47
f 50/49/49 46/47/47 48/48/48
f 48/48/48 49/50/50 50/49/49
f 51/51/51 47/46/46 46/47/47
f 46/47/47 50/49/49 51/51/51
f 48/48/48 43/43/43 42/41/41
f 42/41/41 52/52/52 48/48/48
f 52/52/52 42/41/41 41/42/42
f 41/42/42 53/53/53 52/52/52
f 55/54/54 52/52/52 53/53/53
f 53/53/53 54/55/55 55/54/54
f 49/50/50 48/48/48 52/52/52
f 52/52/52 55/54/54 49/50/50
f 57/56/56 49/50/50 55/54/54
f 55/54/54 56/57/57 57/56/56
f 56/57/57 55/54/54 54/55/55
f 54/55/55 58/58/58 56/57/57
f 60/59/59 56/57/57 58/58/58
f 58/58/58 59/60/60 60/59/59
f 61/61/61 57/56/56 56/57/57
f 56/57/57 60/59/59 61/61/61
f 63/62/62 51/51/51 50/49/49
f 50/49/49 62/63/63 63/62/62
f 62/63/63 50/49/49 49/50/50
f 49/50/50 57/56/56 62/63/63
f 64/64/64 62/63/63 57/56/56
f 57/56/56 61/61/61 64/64/64
f 65/65/65 63/62/62 62/63/63
f 62/63/63 64/64/64 65/65/65
f 67/66/66 25/25/25 24/24/24
f 24/24/24 66/67/67 67/66/66
f 66/67/67 24/24/24 21/21/21
f 21/21/21 68/68/68 66/67/67
f 70/69/69 66/67/67 68/68/68
f 68/68/68 69/70/70 70/69/69
f 71/71/71 67/66/66 66/67/67
f 66/67/67 70/69/69 71/71/71
f 68/68/68 21/21/21 20/19/19
f 20/19/19 72/72/72 68/68/68
f 72/72/72 20/19/19 19/20/20
f 19/20/20 47/46/46 72/72/72
f 73/73/73 72/72/72 47/46/46
f 47/46/46 51/51/51 73/73/73
f 69/70/70 68/68/68 72/72/72
f 72/72/72 73/73/73 69/70/70
f 75/74/74 69/70/70 73/73/73
f 73/73/73 74/75/75 75/74/74
f 74/75/75 73/73/73 51/51/51
f 51/51/51 63/62/62 74/75/75
f 76/76/76 74/75/75 63/62/62
f 63/62/62 65/65/65 76/76/76
f 77/77/77 75/74/74 74/75/75
f 74/75/75 76/76/76 77/77/77
f 79/78/78 71/71/71 70/69/69
f 70/69/69 78/79/79 79/78/78
f 78/79/79 70/69/69 69/70/70
f 69/70/70 75/74/74 78/79/79
f 80/80/80 78/79/79 75/74/74
f 75/74/74 77/77/77 80/80/80
f 81/81/81 79/78/78 78/79/79
f 78/79/79 80/80/80 81/81/81
