# Blender 4.2.2 LTS
# www.blender.org
mtllib point.mtl
o Plane.096
v -16.960417 -2.115762 -100.937042
v -16.960417 -2.115762 -100.646133
v 17.794466 -2.115764 -100.937042
v 17.794466 -2.115764 -100.646133
v 17.794466 -2.244083 -100.937042
v -16.960417 -2.244080 -100.937042
v -16.960417 -2.244080 -100.646133
v 17.794466 -2.244083 -100.646133
v -21.155420 -1.683474 -32.222164
v -21.155420 -1.683474 -31.854744
v 22.054487 -1.683477 -32.222164
v 22.054487 -1.683477 -31.854742
v 22.054487 -1.811796 -32.222164
v -21.155420 -1.811792 -32.222164
v -21.155420 -1.811792 -31.854744
v 22.054487 -1.811796 -31.854742
v -19.360146 -1.683474 -69.777451
v -19.360146 -1.683474 -69.410034
v 20.237637 -1.683477 -69.777451
v 20.237637 -1.683477 -69.410034
v 20.237637 -1.811796 -69.777451
v -19.360146 -1.811793 -69.777451
v -19.360146 -1.811793 -69.410034
v 20.237637 -1.811796 -69.410034
v -13.794920 -2.443059 -132.887833
v -13.794920 -2.443059 -132.641373
v 14.154634 -2.443061 -132.887833
v 14.154634 -2.443061 -132.641373
v 14.154634 -2.571380 -132.887833
v -13.794920 -2.571378 -132.887833
v -13.794920 -2.571378 -132.641373
v 14.154634 -2.571380 -132.641373
v -10.688134 -2.599078 -160.361221
v -10.688134 -2.599078 -160.070297
v 11.070254 -2.599080 -160.361221
v 11.070254 -2.599080 -160.070297
v 11.070254 -2.727399 -160.361221
v -10.688134 -2.727397 -160.361221
v -10.688134 -2.727397 -160.070297
v 11.070254 -2.727399 -160.070297
vn -0.0000 -1.0000 -0.0000
vn -0.0000 1.0000 -0.0000
vn -1.0000 -0.0000 -0.0000
vn 1.0000 -0.0000 -0.0000
vn -0.0000 -0.0000 -1.0000
vn -0.0000 -0.0000 1.0000
vt 0.000000 1.000000
vt 1.000000 0.000000
vt 0.000000 0.000000
vt 1.000000 1.000000
s 0
usemtl Material.013
f 3/1/1 2/2/1 1/3/1
f 7/2/2 5/1/2 6/3/2
f 3/1/3 8/4/3 4/4/3
f 2/2/4 6/3/4 1/3/4
f 4/4/5 7/2/5 2/2/5
f 1/3/6 5/1/6 3/1/6
f 11/1/1 10/2/1 9/3/1
f 15/2/2 13/1/2 14/3/2
f 11/1/3 16/4/3 12/4/3
f 10/2/4 14/3/4 9/3/4
f 12/4/5 15/2/5 10/2/5
f 9/3/6 13/1/6 11/1/6
f 19/1/1 18/2/1 17/3/1
f 23/2/2 21/1/2 22/3/2
f 19/1/3 24/4/3 20/4/3
f 18/2/4 22/3/4 17/3/4
f 20/4/5 23/2/5 18/2/5
f 17/3/6 21/1/6 19/1/6
f 27/1/1 26/2/1 25/3/1
f 31/2/2 29/1/2 30/3/2
f 27/1/3 32/4/3 28/4/3
f 26/2/4 30/3/4 25/3/4
f 28/4/5 31/2/5 26/2/5
f 25/3/6 29/1/6 27/1/6
f 35/1/1 34/2/1 33/3/1
f 39/2/2 37/1/2 38/3/2
f 35/1/3 40/4/3 36/4/3
f 34/2/4 38/3/4 33/3/4
f 36/4/5 39/2/5 34/2/5
f 33/3/6 37/1/6 35/1/6
f 3/1/1 4/4/1 2/2/1
f 7/2/2 8/4/2 5/1/2
f 3/1/3 5/1/3 8/4/3
f 2/2/4 7/2/4 6/3/4
f 4/4/5 8/4/5 7/2/5
f 1/3/6 6/3/6 5/1/6
f 11/1/1 12/4/1 10/2/1
f 15/2/2 16/4/2 13/1/2
f 11/1/3 13/1/3 16/4/3
f 10/2/4 15/2/4 14/3/4
f 12/4/5 16/4/5 15/2/5
f 9/3/6 14/3/6 13/1/6
f 19/1/1 20/4/1 18/2/1
f 23/2/2 24/4/2 21/1/2
f 19/1/3 21/1/3 24/4/3
f 18/2/4 23/2/4 22/3/4
f 20/4/5 24/4/5 23/2/5
f 17/3/6 22/3/6 21/1/6
f 27/1/1 28/4/1 26/2/1
f 31/2/2 32/4/2 29/1/2
f 27/1/3 29/1/3 32/4/3
f 26/2/4 31/2/4 30/3/4
f 28/4/5 32/4/5 31/2/5
f 25/3/6 30/3/6 29/1/6
f 35/1/1 36/4/1 34/2/1
f 39/2/2 40/4/2 37/1/2
f 35/1/3 37/1/3 40/4/3
f 34/2/4 39/2/4 38/3/4
f 36/4/5 40/4/5 39/2/5
f 33/3/6 38/3/6 37/1/6
