# Blender 4.2.2 LTS
# www.blender.org
mtllib bar.mtl
o bar
v -3.120610 0.039761 0.569813
v -3.120610 4.335083 0.569813
v -3.120610 0.039761 -0.569813
v -3.120610 4.335083 -0.569813
v -1.980984 0.039761 0.569813
v -1.980984 4.335083 0.569813
v -1.980984 0.039761 -0.569813
v -1.980984 4.335083 -0.569813
v 1.937409 0.039761 0.569813
v 1.937409 4.335083 0.569813
v 1.937409 0.039761 -0.569813
v 1.937409 4.335083 -0.569813
v 3.077034 0.039761 0.569813
v 3.077034 4.335083 0.569813
v 3.077034 0.039761 -0.569813
v 3.077034 4.335083 -0.569813
v -2.178181 4.333611 0.569813
v 2.117141 4.333612 0.569813
v -2.178181 4.333611 -0.569813
v 2.117141 4.333612 -0.569813
v -2.178181 3.193986 0.569813
v 2.117141 3.193987 0.569813
v -2.178181 3.193986 -0.569813
v 2.117141 3.193987 -0.569813
vn -1.0000 -0.0000 -0.0000
vn -0.0000 -0.0000 -1.0000
vn 1.0000 -0.0000 -0.0000
vn -0.0000 -0.0000 1.0000
vn -0.0000 -1.0000 -0.0000
vn -0.0000 1.0000 -0.0000
vt 0.625000 0.000000
vt 0.375000 0.250000
vt 0.375000 0.000000
vt 0.625000 0.250000
vt 0.375000 0.500000
vt 0.625000 0.500000
vt 0.375000 0.750000
vt 0.625000 0.750000
vt 0.375000 1.000000
vt 0.125000 0.750000
vt 0.125000 0.500000
vt 0.875000 0.500000
vt 0.625000 1.000000
vt 0.875000 0.750000
s 0
f 2/1/1 3/2/1 1/3/1
f 4/4/2 7/5/2 3/2/2
f 8/6/3 5/7/3 7/5/3
f 6/8/4 1/9/4 5/7/4
f 7/5/5 1/10/5 3/11/5
f 4/12/6 6/8/6 8/6/6
f 10/1/1 11/2/1 9/3/1
f 12/4/2 15/5/2 11/2/2
f 16/6/3 13/7/3 15/5/3
f 14/8/4 9/9/4 13/7/4
f 15/5/5 9/10/5 11/11/5
f 12/12/6 14/8/6 16/6/6
f 18/1/6 19/2/6 17/3/6
f 20/4/2 23/5/2 19/2/2
f 24/6/5 21/7/5 23/5/5
f 22/8/4 17/9/4 21/7/4
f 23/5/1 17/10/1 19/11/1
f 20/12/3 22/8/3 24/6/3
f 2/1/1 4/4/1 3/2/1
f 4/4/2 8/6/2 7/5/2
f 8/6/3 6/8/3 5/7/3
f 6/8/4 2/13/4 1/9/4
f 7/5/5 5/7/5 1/10/5
f 4/12/6 2/14/6 6/8/6
f 10/1/1 12/4/1 11/2/1
f 12/4/2 16/6/2 15/5/2
f 16/6/3 14/8/3 13/7/3
f 14/8/4 10/13/4 9/9/4
f 15/5/5 13/7/5 9/10/5
f 12/12/6 10/14/6 14/8/6
f 18/1/6 20/4/6 19/2/6
f 20/4/2 24/6/2 23/5/2
f 24/6/5 22/8/5 21/7/5
f 22/8/4 18/13/4 17/9/4
f 23/5/1 21/7/1 17/10/1
f 20/12/3 18/14/3 22/8/3
