# Blender 4.2.2 LTS
# www.blender.org
mtllib fan.mtl
o fan
v 0.341390 3.924909 2.775471
v -0.262730 3.634312 2.775471
v 0.341389 3.924909 1.786513
v -0.262731 3.634312 1.786511
v -2.067634 0.528625 2.775469
v -2.113697 0.731952 2.775469
v -2.102590 0.558965 2.775469
v -2.126324 0.598565 2.775469
v -2.136515 0.643547 2.775469
v -2.132164 0.689510 2.775469
v -1.814053 0.545124 2.775467
v -2.019463 0.498590 2.775467
v -1.844827 0.510356 2.775467
v -1.884898 0.486664 2.775467
v -1.930341 0.476370 2.775467
v -1.976709 0.480479 2.775467
v -2.113697 0.731953 1.786511
v -2.067635 0.528625 1.786511
v -2.132164 0.689510 1.786511
v -2.136515 0.643548 1.786511
v -2.126325 0.598565 1.786511
v -2.102590 0.558966 1.786511
v -2.019463 0.498590 1.786509
v -1.814053 0.545124 1.786509
v -1.976709 0.480479 1.786509
v -1.930341 0.476370 1.786509
v -1.884898 0.486664 1.786509
v -1.844828 0.510356 1.786509
v -0.225356 3.564207 2.775471
v 0.378764 3.854804 2.775471
v -0.225356 3.564207 1.786513
v 0.378765 3.854804 1.786511
v 2.183668 6.960491 2.775471
v 2.229731 6.757164 2.775470
v 2.218623 6.930151 2.775471
v 2.242358 6.890551 2.775471
v 2.252548 6.845569 2.775470
v 2.248197 6.799606 2.775470
v 1.930087 6.943992 2.775468
v 2.135497 6.990525 2.775468
v 1.960861 6.978761 2.775468
v 2.000931 7.002451 2.775468
v 2.046375 7.012747 2.775468
v 2.092742 7.008636 2.775468
v 2.229731 6.757164 1.786512
v 2.183669 6.960490 1.786512
v 2.248198 6.799606 1.786512
v 2.252549 6.845568 1.786512
v 2.242358 6.890551 1.786512
v 2.218624 6.930151 1.786512
v 2.135497 6.990525 1.786510
v 1.930087 6.943992 1.786510
v 2.092743 7.008636 1.786510
v 2.046375 7.012747 1.786510
v 2.000932 7.002451 1.786510
v 1.960861 6.978761 1.786510
vn 0.8431 -0.5377 -0.0000
vn -0.0000 -0.0000 1.0000
vn 0.5291 0.8486 -0.0000
vn -0.8431 0.5377 -0.0000
vn 0.3901 0.9208 -0.0000
vn 0.3900 0.9208 -0.0000
vn 0.0883 0.9961 -0.0000
vn -0.2209 0.9753 -0.0000
vn -0.5090 0.8608 -0.0000
vn -0.7488 0.6628 -0.0000
vn 0.9170 -0.3990 -0.0000
vn 0.9955 -0.0942 -0.0000
vn 0.9753 0.2210 -0.0000
vn 0.9753 0.2209 -0.0000
vn 0.8577 0.5141 -0.0000
vn 0.6555 0.7552 -0.0000
vn -0.0000 -0.0000 -1.0000
vn -0.5291 -0.8486 -0.0000
vn -0.3900 -0.9208 -0.0000
vn -0.3901 -0.9208 -0.0000
vn -0.0883 -0.9961 -0.0000
vn 0.2209 -0.9753 -0.0000
vn 0.2210 -0.9753 -0.0000
vn 0.5089 -0.8608 -0.0000
vn 0.7488 -0.6628 -0.0000
vn -0.9170 0.3990 -0.0000
vn -0.9955 0.0942 -0.0000
vn -0.9753 -0.2209 -0.0000
vn -0.9753 -0.2210 -0.0000
vn -0.8577 -0.5141 -0.0000
vn -0.6555 -0.7552 -0.0000
vn -0.0001 -0.0002 1.0000
vn -0.0001 -0.0002 -1.0000
vn 0.0001 0.0002 1.0000
vn 0.0002 0.0003 -1.0000
vn 0.0001 -0.0000 -1.0000
vt 0.315663 0.206125
vt 0.315713 0.206219
vt 0.318725 0.211854
vt 0.322766 0.219414
vt 0.319899 0.214049
vt 0.322961 0.219779
vt 0.320846 0.215822
vt 0.321703 0.217424
vt 0.322911 0.219685
vt 0.315858 0.206490
vt 0.316929 0.208494
vt 0.317780 0.210086
s 1
usemtl Pink.002
f 4/1/1 6/1/1 17/1/1
f 19/2/2 18/3/2 27/4/2
f 12/5/3 18/3/3 5/3/3
f 3/6/4 11/6/4 1/6/4
f 12/5/5 25/7/6 23/5/6
f 16/7/7 26/8/7 25/7/7
f 15/8/8 27/4/8 26/8/8
f 14/4/9 28/9/9 27/4/9
f 13/9/10 24/6/10 28/9/10
f 6/1/11 19/2/11 17/1/11
f 10/2/12 20/10/12 19/2/12
f 9/10/13 21/11/14 20/10/14
f 8/11/15 22/12/15 21/11/15
f 7/12/16 18/3/16 22/12/16
f 13/9/17 12/5/17 9/10/17
f 32/1/4 34/1/4 45/1/4
f 47/2/2 46/3/2 55/4/2
f 40/5/18 46/3/18 33/3/18
f 31/6/1 39/6/1 29/6/1
f 40/5/19 53/7/20 51/5/20
f 44/7/21 54/8/21 53/7/21
f 43/8/22 55/4/23 54/8/23
f 42/4/24 56/9/24 55/4/24
f 41/9/25 52/6/25 56/9/25
f 34/1/26 47/2/26 45/1/26
f 38/2/27 48/10/27 47/2/27
f 37/10/28 49/11/29 48/10/29
f 36/11/30 50/12/30 49/11/30
f 35/12/31 46/3/31 50/12/31
f 41/9/17 40/5/17 37/10/17
f 4/1/1 2/1/1 6/1/1
f 24/6/2 3/6/2 4/1/2
f 4/1/2 17/1/2 19/2/2
f 19/2/2 20/10/2 21/11/2
f 21/11/2 22/12/2 18/3/2
f 18/3/2 23/5/32 25/7/2
f 25/7/2 26/8/2 27/4/2
f 27/4/2 28/9/2 24/6/2
f 24/6/2 4/1/2 19/2/2
f 19/2/2 21/11/2 18/3/2
f 18/3/2 25/7/2 27/4/2
f 27/4/2 24/6/2 19/2/2
f 12/5/3 23/5/3 18/3/3
f 3/6/4 24/6/4 11/6/4
f 12/5/5 16/7/5 25/7/6
f 16/7/7 15/8/7 26/8/7
f 15/8/8 14/4/8 27/4/8
f 14/4/9 13/9/9 28/9/9
f 13/9/10 11/6/10 24/6/10
f 6/1/11 10/2/11 19/2/11
f 10/2/12 9/10/12 20/10/12
f 9/10/13 8/11/13 21/11/14
f 8/11/15 7/12/15 22/12/15
f 7/12/16 5/3/16 18/3/16
f 6/1/17 2/1/17 1/6/17
f 1/6/17 11/6/17 13/9/17
f 13/9/17 14/4/17 15/8/17
f 15/8/17 16/7/17 12/5/17
f 12/5/17 5/3/33 7/12/17
f 7/12/17 8/11/17 9/10/17
f 9/10/17 10/2/17 6/1/17
f 6/1/17 1/6/17 13/9/17
f 13/9/17 15/8/17 12/5/17
f 12/5/17 7/12/17 9/10/17
f 9/10/17 6/1/17 13/9/17
f 32/1/4 30/1/4 34/1/4
f 52/6/2 31/6/2 32/1/2
f 32/1/2 45/1/2 47/2/2
f 47/2/2 48/10/2 49/11/2
f 49/11/2 50/12/2 46/3/2
f 46/3/2 51/5/34 53/7/2
f 53/7/2 54/8/2 55/4/2
f 55/4/2 56/9/2 52/6/2
f 52/6/2 32/1/2 47/2/2
f 47/2/2 49/11/2 46/3/2
f 46/3/2 53/7/2 55/4/2
f 55/4/2 52/6/2 47/2/2
f 40/5/18 51/5/18 46/3/18
f 31/6/1 52/6/1 39/6/1
f 40/5/19 44/7/19 53/7/20
f 44/7/21 43/8/21 54/8/21
f 43/8/22 42/4/22 55/4/23
f 42/4/24 41/9/24 56/9/24
f 41/9/25 39/6/25 52/6/25
f 34/1/26 38/2/26 47/2/26
f 38/2/27 37/10/27 48/10/27
f 37/10/28 36/11/28 49/11/29
f 36/11/30 35/12/30 50/12/30
f 35/12/31 33/3/31 46/3/31
f 34/1/17 30/1/17 29/6/17
f 29/6/17 39/6/17 41/9/17
f 41/9/17 42/4/17 43/8/17
f 43/8/17 44/7/17 40/5/17
f 40/5/17 33/3/35 35/12/36
f 35/12/36 36/11/36 37/10/17
f 37/10/17 38/2/17 34/1/17
f 34/1/17 29/6/17 41/9/17
f 41/9/17 43/8/17 40/5/17
f 40/5/17 35/12/36 37/10/17
f 37/10/17 34/1/17 41/9/17
